<?xml version="1.0" encoding="UTF-8"?>
<svg width="1000px" height="1000px" viewBox="0 0 1000 1000" version="1.1" xmlns="http://www.w3.org/2000/svg" xmlns:xlink="http://www.w3.org/1999/xlink">
    <title>MapCTA2</title>
    <g id="MapCTA2" stroke="none" stroke-width="1" fill="none" fill-rule="evenodd">
        <rect id="Rectangle" fill="#6E9B75" x="0" y="0" width="1000" height="1000"></rect>
        <path d="M176.468,383.896 C180.393333,383.896 183.636,382.84 186.196,380.728 C188.756,378.616 190.036,375.618667 190.036,371.736 C190.036,369.56 189.566667,367.661333 188.628,366.04 C187.689333,364.418667 186.441333,362.978667 184.884,361.72 C183.326667,360.461333 181.204,359 178.516,357.336 L178.516,357.336 L176.66,356.184 C174.526667,354.861333 172.884,353.773333 171.732,352.92 C170.58,352.066667 169.630667,351.042667 168.884,349.848 C168.137333,348.653333 167.764,347.245333 167.764,345.624 C167.764,343.448 168.489333,341.666667 169.94,340.28 C171.390667,338.893333 173.268,338.2 175.572,338.2 C178.857333,338.2 181.364,339.384 183.092,341.752 C184.82,344.12 185.812,347.032 186.068,350.488 L186.068,350.488 L187.54,350.488 C187.54,344.258667 187.646667,339.906667 187.86,337.432 L187.86,337.432 L186.388,337.432 C186.26,338.413333 186.089333,339.128 185.876,339.576 C185.662667,340.024 185.364,340.248 184.98,340.248 C184.468,340.248 183.742667,339.949333 182.804,339.352 C181.652,338.584 180.532,337.997333 179.444,337.592 C178.356,337.186667 176.873333,336.984 174.996,336.984 C171.582667,336.984 168.724,337.933333 166.42,339.832 C164.116,341.730667 162.964,344.472 162.964,348.056 C162.964,350.317333 163.454667,352.290667 164.436,353.976 C165.417333,355.661333 166.686667,357.101333 168.244,358.296 C169.801333,359.490667 171.838667,360.856 174.356,362.392 C177.812,364.482667 180.34,366.36 181.94,368.024 C183.54,369.688 184.34,371.714667 184.34,374.104 C184.34,376.92 183.529333,379.042667 181.908,380.472 C180.286667,381.901333 178.324,382.616 176.02,382.616 C172.222667,382.616 169.406667,381.272 167.572,378.584 C165.737333,375.896 164.670667,372.397333 164.372,368.088 L164.372,368.088 L162.9,368.088 C162.9,375.981333 162.814667,381.101333 162.644,383.448 L162.644,383.448 L164.116,383.448 C164.244,382.466667 164.414667,381.752 164.628,381.304 C164.841333,380.856 165.14,380.632 165.524,380.632 C166.036,380.632 166.761333,380.930667 167.7,381.528 C168.894667,382.253333 170.142667,382.829333 171.444,383.256 C172.745333,383.682667 174.42,383.896 176.468,383.896 Z M210.836,383.896 C213.822667,383.896 216.372,383.053333 218.484,381.368 C220.596,379.682667 222.036,377.666667 222.804,375.32 L222.804,375.32 L221.524,374.808 C220.457333,377.112 219.134667,378.754667 217.556,379.736 C215.977333,380.717333 214.164,381.208 212.116,381.208 C210.452,381.208 208.862667,380.642667 207.348,379.512 C205.833333,378.381333 204.617333,376.770667 203.7,374.68 C202.782667,372.589333 202.324,370.136 202.324,367.32 C202.324,365.784 202.388,364.418667 202.516,363.224 L202.516,363.224 L222.548,363.224 C222.548,358.488 221.513333,354.957333 219.444,352.632 C217.374667,350.306667 214.42,349.144 210.58,349.144 C207.678667,349.144 205.14,349.88 202.964,351.352 C200.788,352.824 199.102667,354.925333 197.908,357.656 C196.713333,360.386667 196.116,363.608 196.116,367.32 C196.116,370.605333 196.702667,373.496 197.876,375.992 C199.049333,378.488 200.745333,380.429333 202.964,381.816 C205.182667,383.202667 207.806667,383.896 210.836,383.896 Z M216.404,362.008 L202.452,362.008 C202.793333,358.168 203.689333,355.266667 205.14,353.304 C206.590667,351.341333 208.318667,350.36 210.324,350.36 C212.372,350.36 213.918667,351.469333 214.964,353.688 C216.009333,355.906667 216.489333,358.68 216.404,362.008 L216.404,362.008 Z M243.22,383.896 C246.206667,383.896 248.756,383.053333 250.868,381.368 C252.98,379.682667 254.42,377.666667 255.188,375.32 L255.188,375.32 L253.908,374.808 C252.841333,377.112 251.518667,378.754667 249.94,379.736 C248.361333,380.717333 246.548,381.208 244.5,381.208 C242.836,381.208 241.246667,380.642667 239.732,379.512 C238.217333,378.381333 237.001333,376.770667 236.084,374.68 C235.166667,372.589333 234.708,370.136 234.708,367.32 C234.708,365.784 234.772,364.418667 234.9,363.224 L234.9,363.224 L254.932,363.224 C254.932,358.488 253.897333,354.957333 251.828,352.632 C249.758667,350.306667 246.804,349.144 242.964,349.144 C240.062667,349.144 237.524,349.88 235.348,351.352 C233.172,352.824 231.486667,354.925333 230.292,357.656 C229.097333,360.386667 228.5,363.608 228.5,367.32 C228.5,370.605333 229.086667,373.496 230.26,375.992 C231.433333,378.488 233.129333,380.429333 235.348,381.816 C237.566667,383.202667 240.190667,383.896 243.22,383.896 Z M248.788,362.008 L234.836,362.008 C235.177333,358.168 236.073333,355.266667 237.524,353.304 C238.974667,351.341333 240.702667,350.36 242.708,350.36 C244.756,350.36 246.302667,351.469333 247.348,353.688 C248.393333,355.906667 248.873333,358.68 248.788,362.008 L248.788,362.008 Z M288.02,383.896 C292.5,383.896 295.273333,380.952 296.34,375.064 L296.34,375.064 L295.06,374.744 C294.42,377.176 293.630667,378.925333 292.692,379.992 C291.753333,381.058667 290.622667,381.592 289.3,381.592 C287.977333,381.592 286.964,381.165333 286.26,380.312 C285.556,379.458667 285.204,378.072 285.204,376.152 L285.204,376.152 L285.204,351.384 L294.676,351.384 L294.676,350.104 L285.204,350.104 L285.204,339.416 C283.753333,339.928 281.833333,340.226667 279.444,340.312 L279.444,340.312 L279.444,350.104 L273.3,350.104 L273.3,351.384 L279.444,351.384 L279.444,372.824 C279.444,375.128 279.625333,376.962667 279.988,378.328 C280.350667,379.693333 281.001333,380.845333 281.94,381.784 C282.665333,382.509333 283.497333,383.042667 284.436,383.384 C285.374667,383.725333 286.569333,383.896 288.02,383.896 Z M332.372,383 L332.372,381.656 C330.58,381.656 329.321333,381.325333 328.596,380.664 C327.870667,380.002667 327.508,378.797333 327.508,377.048 L327.508,377.048 L327.508,359.96 C327.508,357.784 327.337333,356.056 326.996,354.776 C326.654667,353.496 326.078667,352.429333 325.268,351.576 C323.732,349.954667 321.470667,349.144 318.484,349.144 C316.094667,349.144 313.950667,349.752 312.052,350.968 C310.153333,352.184 308.670667,354.136 307.604,356.824 L307.604,356.824 L307.604,332.888 C305.854667,333.485333 303.636,333.784 300.948,333.784 C299.668,333.784 298.345333,333.72 296.98,333.592 L296.98,333.592 L296.98,334.936 C298.772,334.936 300.030667,335.384 300.756,336.28 C301.481333,337.176 301.844,338.605333 301.844,340.568 L301.844,340.568 L301.844,377.048 C301.844,378.797333 301.481333,380.002667 300.756,380.664 C300.030667,381.325333 298.772,381.656 296.98,381.656 L296.98,381.656 L296.98,383 C300.905333,382.829333 303.465333,382.744 304.66,382.744 C305.854667,382.744 308.244,382.829333 311.828,383 L311.828,383 L311.828,381.656 C310.249333,381.656 309.150667,381.325333 308.532,380.664 C307.913333,380.002667 307.604,378.797333 307.604,377.048 L307.604,377.048 L307.604,362.776 C307.604,360.557333 307.988,358.562667 308.756,356.792 C309.524,355.021333 310.58,353.645333 311.924,352.664 C313.268,351.682667 314.814667,351.192 316.564,351.192 C318.654667,351.192 320.041333,351.821333 320.724,353.08 C321.406667,354.338667 321.748,356.162667 321.748,358.552 L321.748,358.552 L321.748,377.048 C321.748,378.797333 321.438667,380.002667 320.82,380.664 C320.201333,381.325333 319.102667,381.656 317.524,381.656 L317.524,381.656 L317.524,383 C321.108,382.829333 323.497333,382.744 324.692,382.744 C325.886667,382.744 328.446667,382.829333 332.372,383 L332.372,383 Z M342.484,342.232 C343.593333,342.232 344.553333,341.826667 345.364,341.016 C346.174667,340.205333 346.58,339.245333 346.58,338.136 C346.58,337.026667 346.174667,336.066667 345.364,335.256 C344.553333,334.445333 343.593333,334.04 342.484,334.04 C341.374667,334.04 340.414667,334.445333 339.604,335.256 C338.793333,336.066667 338.388,337.026667 338.388,338.136 C338.388,339.245333 338.793333,340.205333 339.604,341.016 C340.414667,341.826667 341.374667,342.232 342.484,342.232 Z M350.676,383 L350.676,381.656 C348.884,381.656 347.625333,381.325333 346.9,380.664 C346.174667,380.002667 345.812,378.797333 345.812,377.048 L345.812,377.048 L345.812,349.336 C344.062667,349.933333 341.844,350.232 339.156,350.232 C337.876,350.232 336.553333,350.168 335.188,350.04 L335.188,350.04 L335.188,351.384 C336.98,351.384 338.238667,351.832 338.964,352.728 C339.689333,353.624 340.052,355.053333 340.052,357.016 L340.052,357.016 L340.052,377.048 C340.052,378.797333 339.689333,380.002667 338.964,380.664 C338.238667,381.325333 336.98,381.656 335.188,381.656 L335.188,381.656 L335.188,383 C339.113333,382.829333 341.694667,382.744 342.932,382.744 C344.169333,382.744 346.750667,382.829333 350.676,383 L350.676,383 Z M366.74,383.896 C369.812,383.896 372.404,383.106667 374.516,381.528 C376.628,379.949333 377.684,377.752 377.684,374.936 C377.684,373.272 377.310667,371.8 376.564,370.52 C375.817333,369.24 374.846667,368.109333 373.652,367.128 C372.457333,366.146667 370.878667,365.016 368.916,363.736 C368.148,363.224 367.572,362.861333 367.188,362.648 C364.926667,361.24 363.284,360.034667 362.26,359.032 C361.236,358.029333 360.724,356.781333 360.724,355.288 C360.724,353.752 361.214667,352.546667 362.196,351.672 C363.177333,350.797333 364.436,350.36 365.972,350.36 C368.617333,350.36 370.612,351.277333 371.956,353.112 C373.3,354.946667 374.206667,357.272 374.676,360.088 L374.676,360.088 L376.148,360.088 C376.148,354.925333 376.233333,351.298667 376.404,349.208 L376.404,349.208 L374.932,349.208 C374.761333,351.085333 374.292,352.024 373.524,352.024 C373.225333,352.024 372.841333,351.853333 372.372,351.512 C371.646667,350.872 370.686667,350.317333 369.492,349.848 C368.297333,349.378667 366.932,349.144 365.396,349.144 C362.665333,349.144 360.404,349.848 358.612,351.256 C356.82,352.664 355.924,354.712 355.924,357.4 C355.924,359.064 356.308,360.514667 357.076,361.752 C357.844,362.989333 358.793333,364.034667 359.924,364.888 C361.054667,365.741333 362.665333,366.829333 364.756,368.152 C367.316,369.773333 369.161333,371.16 370.292,372.312 C371.422667,373.464 371.988,374.872 371.988,376.536 C371.988,378.626667 371.412,380.162667 370.26,381.144 C369.108,382.125333 367.785333,382.616 366.292,382.616 C363.305333,382.616 361.193333,381.624 359.956,379.64 C358.718667,377.656 357.865333,374.658667 357.396,370.648 L357.396,370.648 L355.924,370.648 C355.924,376.749333 355.838667,381.016 355.668,383.448 L355.668,383.448 L357.14,383.448 C357.268,382.68 357.449333,382.082667 357.684,381.656 C357.918667,381.229333 358.185333,381.016 358.484,381.016 C358.697333,381.016 358.889333,381.101333 359.06,381.272 C359.870667,381.954667 360.745333,382.530667 361.684,383 C363.134667,383.597333 364.82,383.896 366.74,383.896 Z M452.5,383 L452.5,381.656 C450.708,381.656 449.449333,381.325333 448.724,380.664 C447.998667,380.002667 447.636,378.797333 447.636,377.048 L447.636,377.048 L447.636,359.96 C447.636,357.869333 447.476,356.162667 447.156,354.84 C446.836,353.517333 446.292,352.429333 445.524,351.576 C443.988,349.954667 441.769333,349.144 438.868,349.144 C436.606667,349.144 434.537333,349.730667 432.66,350.904 C430.782667,352.077333 429.310667,354.008 428.244,356.696 C427.988,354.392 427.326667,352.685333 426.26,351.576 C424.724,349.954667 422.505333,349.144 419.604,349.144 C417.385333,349.144 415.337333,349.773333 413.46,351.032 C411.582667,352.290667 410.132,354.242667 409.108,356.888 L409.108,356.888 L409.108,349.336 C407.358667,349.933333 405.14,350.232 402.452,350.232 C401.172,350.232 399.849333,350.168 398.484,350.04 L398.484,350.04 L398.484,351.384 C400.276,351.384 401.534667,351.832 402.26,352.728 C402.985333,353.624 403.348,355.053333 403.348,357.016 L403.348,357.016 L403.348,377.048 C403.348,378.797333 402.985333,380.002667 402.26,380.664 C401.534667,381.325333 400.276,381.656 398.484,381.656 L398.484,381.656 L398.484,383 C402.409333,382.829333 404.969333,382.744 406.164,382.744 C407.358667,382.744 409.748,382.829333 413.332,383 L413.332,383 L413.332,381.656 C411.753333,381.656 410.654667,381.325333 410.036,380.664 C409.417333,380.002667 409.108,378.797333 409.108,377.048 L409.108,377.048 L409.108,362.84 C409.108,360.706667 409.481333,358.744 410.228,356.952 C410.974667,355.16 412.009333,353.752 413.332,352.728 C414.654667,351.704 416.126667,351.192 417.748,351.192 C419.198667,351.192 420.276,351.512 420.98,352.152 C421.684,352.792 422.132,353.613333 422.324,354.616 C422.516,355.618667 422.612,356.930667 422.612,358.552 L422.612,358.552 L422.612,377.048 C422.612,378.797333 422.302667,380.002667 421.684,380.664 C421.065333,381.325333 419.966667,381.656 418.388,381.656 L418.388,381.656 L418.388,383 C421.972,382.829333 424.361333,382.744 425.556,382.744 C426.750667,382.744 429.310667,382.829333 433.236,383 L433.236,383 L433.236,381.656 C431.444,381.656 430.185333,381.325333 429.46,380.664 C428.734667,380.002667 428.372,378.797333 428.372,377.048 L428.372,377.048 L428.372,362.776 C428.372,360.642667 428.745333,358.690667 429.492,356.92 C430.238667,355.149333 431.273333,353.752 432.596,352.728 C433.918667,351.704 435.390667,351.192 437.012,351.192 C438.462667,351.192 439.54,351.512 440.244,352.152 C440.948,352.792 441.396,353.613333 441.588,354.616 C441.78,355.618667 441.876,356.930667 441.876,358.552 L441.876,358.552 L441.876,377.048 C441.876,378.797333 441.566667,380.002667 440.948,380.664 C440.329333,381.325333 439.230667,381.656 437.652,381.656 L437.652,381.656 L437.652,383 C441.236,382.829333 443.625333,382.744 444.82,382.744 C446.014667,382.744 448.574667,382.829333 452.5,383 L452.5,383 Z M479.444,383.448 C480.638667,383.448 481.630667,383.266667 482.42,382.904 C483.209333,382.541333 484.158667,381.933333 485.268,381.08 L485.268,381.08 L484.564,379.992 C484.052,380.418667 483.572,380.749333 483.124,380.984 C482.676,381.218667 482.196,381.336 481.684,381.336 C480.958667,381.336 480.446667,381.101333 480.148,380.632 C479.849333,380.162667 479.7,379.394667 479.7,378.328 L479.7,378.328 L479.7,360.536 C479.7,358.274667 479.518667,356.450667 479.156,355.064 C478.793333,353.677333 478.078667,352.493333 477.012,351.512 C475.305333,349.933333 472.788,349.144 469.46,349.144 C467.582667,349.144 465.854667,349.378667 464.276,349.848 C462.697333,350.317333 461.396,350.914667 460.372,351.64 C459.390667,352.322667 458.654667,353.005333 458.164,353.688 C457.673333,354.370667 457.428,355.224 457.428,356.248 C457.428,357.314667 457.726667,358.221333 458.324,358.968 C458.921333,359.714667 459.817333,360.088 461.012,360.088 C462.078667,360.088 462.953333,359.778667 463.636,359.16 C464.318667,358.541333 464.66,357.698667 464.66,356.632 C464.66,355.608 464.372,354.754667 463.796,354.072 C463.22,353.389333 462.505333,352.941333 461.652,352.728 C462.889333,351.192 465.001333,350.424 467.988,350.424 C469.865333,350.424 471.326667,350.882667 472.372,351.8 C473.417333,352.717333 473.94,354.413333 473.94,356.888 L473.94,356.888 L473.94,360.856 C473.94,362.008 473.364,362.925333 472.212,363.608 C471.06,364.290667 469.289333,365.037333 466.9,365.848 C464.553333,366.658667 462.665333,367.426667 461.236,368.152 C459.806667,368.877333 458.569333,369.858667 457.524,371.096 C456.478667,372.333333 455.956,373.912 455.956,375.832 C455.956,378.221333 456.606667,380.088 457.908,381.432 C459.209333,382.776 461.204,383.448 463.892,383.448 C465.982667,383.448 467.86,383.032 469.524,382.2 C471.188,381.368 472.66,379.885333 473.94,377.752 C473.94,379.501333 474.345333,380.888 475.156,381.912 C475.966667,382.936 477.396,383.448 479.444,383.448 Z M466.708,380.888 C465.172,380.888 463.934667,380.397333 462.996,379.416 C462.057333,378.434667 461.588,376.984 461.588,375.064 C461.588,373.4 461.950667,372.034667 462.676,370.968 C463.401333,369.901333 464.265333,369.058667 465.268,368.44 C466.270667,367.821333 467.582667,367.170667 469.204,366.488 C470.612,365.848 471.657333,365.336 472.34,364.952 C473.022667,364.568 473.556,364.077333 473.94,363.48 L473.94,363.48 L473.94,376.024 C471.934667,379.266667 469.524,380.888 466.708,380.888 Z M503.508,394.584 L503.508,393.24 C501.46,393.24 499.924,392.909333 498.9,392.248 C497.876,391.586667 497.364,390.381333 497.364,388.632 L497.364,388.632 L497.364,380.44 C498.089333,381.464 499.113333,382.296 500.436,382.936 C501.758667,383.576 503.230667,383.896 504.852,383.896 C508.137333,383.896 510.878667,383 513.076,381.208 C515.273333,379.416 516.894667,377.090667 517.94,374.232 C518.985333,371.373333 519.508,368.301333 519.508,365.016 C519.508,361.688 518.996,358.829333 517.972,356.44 C516.948,354.050667 515.529333,352.237333 513.716,351 C511.902667,349.762667 509.865333,349.144 507.604,349.144 C505.3,349.144 503.252,349.752 501.46,350.968 C499.668,352.184 498.302667,353.901333 497.364,356.12 L497.364,356.12 L497.364,349.336 C495.614667,349.933333 493.396,350.232 490.708,350.232 C489.385333,350.232 488.062667,350.168 486.74,350.04 L486.74,350.04 L486.74,351.384 C488.532,351.384 489.790667,351.832 490.516,352.728 C491.241333,353.624 491.604,355.053333 491.604,357.016 L491.604,357.016 L491.604,389.272 C491.604,390.765333 491.294667,391.8 490.676,392.376 C490.057333,392.952 488.958667,393.24 487.38,393.24 L487.38,393.24 L487.38,394.584 C490.964,394.413333 493.268,394.328 494.292,394.328 C495.486667,394.328 498.068,394.392 502.036,394.52 L502.036,394.52 L503.508,394.584 Z M504.148,382.424 C502.526667,382.424 501.14,382.050667 499.988,381.304 C498.836,380.557333 497.961333,379.565333 497.364,378.328 L497.364,378.328 L497.364,359.128 C498.046667,356.525333 499.156,354.530667 500.692,353.144 C502.228,351.757333 503.956,351.064 505.876,351.064 C510.825333,351.064 513.3,356.013333 513.3,365.912 C513.3,376.92 510.249333,382.424 504.148,382.424 Z M555.988,383.896 C560.34,383.896 563.849333,382.466667 566.516,379.608 C569.182667,376.749333 570.516,372.397333 570.516,366.552 C570.516,360.706667 569.182667,356.344 566.516,353.464 C563.849333,350.584 560.34,349.144 555.988,349.144 C551.636,349.144 548.126667,350.584 545.46,353.464 C542.793333,356.344 541.46,360.706667 541.46,366.552 C541.46,372.397333 542.793333,376.749333 545.46,379.608 C548.126667,382.466667 551.636,383.896 555.988,383.896 Z M555.988,382.616 C553.428,382.616 551.401333,381.314667 549.908,378.712 C548.414667,376.109333 547.668,372.056 547.668,366.552 C547.668,361.048 548.414667,356.984 549.908,354.36 C551.401333,351.736 553.428,350.424 555.988,350.424 C558.548,350.424 560.574667,351.736 562.068,354.36 C563.561333,356.984 564.308,361.048 564.308,366.552 C564.308,372.056 563.561333,376.109333 562.068,378.712 C560.574667,381.314667 558.548,382.616 555.988,382.616 Z M589.524,383.32 L600.02,355.8 C600.617333,354.264 601.246667,353.154667 601.908,352.472 C602.569333,351.789333 603.326667,351.405333 604.18,351.32 L604.18,351.32 L604.18,350.04 C602.814667,350.168 601.193333,350.232 599.316,350.232 C597.950667,350.232 596.158667,350.168 593.94,350.04 L593.94,350.04 L593.94,351.32 C595.604,351.448 596.809333,351.736 597.556,352.184 C598.302667,352.632 598.676,353.346667 598.676,354.328 C598.676,355.053333 598.441333,356.056 597.972,357.336 L597.972,357.336 L590.932,375.832 L583.06,356.376 C582.590667,355.096 582.356,354.157333 582.356,353.56 C582.356,352.578667 582.718667,351.970667 583.444,351.736 C584.169333,351.501333 585.321333,351.384 586.9,351.384 L586.9,351.384 L586.9,350.04 C584.638667,350.210667 581.865333,350.296 578.58,350.296 C577.044,350.296 575.166667,350.210667 572.948,350.04 L572.948,350.04 L572.948,351.384 C573.588,351.384 574.206667,351.618667 574.804,352.088 C575.401333,352.557333 576.02,353.517333 576.66,354.968 L576.66,354.968 L588.436,383.32 L589.524,383.32 Z M621.46,383.896 C624.446667,383.896 626.996,383.053333 629.108,381.368 C631.22,379.682667 632.66,377.666667 633.428,375.32 L633.428,375.32 L632.148,374.808 C631.081333,377.112 629.758667,378.754667 628.18,379.736 C626.601333,380.717333 624.788,381.208 622.74,381.208 C621.076,381.208 619.486667,380.642667 617.972,379.512 C616.457333,378.381333 615.241333,376.770667 614.324,374.68 C613.406667,372.589333 612.948,370.136 612.948,367.32 C612.948,365.784 613.012,364.418667 613.14,363.224 L613.14,363.224 L633.172,363.224 C633.172,358.488 632.137333,354.957333 630.068,352.632 C627.998667,350.306667 625.044,349.144 621.204,349.144 C618.302667,349.144 615.764,349.88 613.588,351.352 C611.412,352.824 609.726667,354.925333 608.532,357.656 C607.337333,360.386667 606.74,363.608 606.74,367.32 C606.74,370.605333 607.326667,373.496 608.5,375.992 C609.673333,378.488 611.369333,380.429333 613.588,381.816 C615.806667,383.202667 618.430667,383.896 621.46,383.896 Z M627.028,362.008 L613.076,362.008 C613.417333,358.168 614.313333,355.266667 615.764,353.304 C617.214667,351.341333 618.942667,350.36 620.948,350.36 C622.996,350.36 624.542667,351.469333 625.588,353.688 C626.633333,355.906667 627.113333,358.68 627.028,362.008 L627.028,362.008 Z M655.444,383 L655.444,381.656 C653.182667,381.656 651.486667,381.272 650.356,380.504 C649.225333,379.736 648.66,378.370667 648.66,376.408 L648.66,376.408 L648.66,362.84 C648.66,361.176 649.044,359.405333 649.812,357.528 C650.58,355.650667 651.646667,354.061333 653.012,352.76 C654.377333,351.458667 655.892,350.808 657.556,350.808 C658.153333,350.808 658.601333,351.021333 658.9,351.448 C657.449333,352.344 656.724,353.496 656.724,354.904 C656.724,355.928 657.054667,356.738667 657.716,357.336 C658.377333,357.933333 659.177333,358.232 660.116,358.232 C661.225333,358.232 662.110667,357.837333 662.772,357.048 C663.433333,356.258667 663.764,355.309333 663.764,354.2 C663.764,352.792 663.22,351.597333 662.132,350.616 C661.044,349.634667 659.646667,349.144 657.94,349.144 C655.892,349.144 654.025333,349.976 652.34,351.64 C650.654667,353.304 649.428,355.202667 648.66,357.336 L648.66,357.336 L648.66,349.336 C646.910667,349.933333 644.692,350.232 642.004,350.232 C640.724,350.232 639.401333,350.168 638.036,350.04 L638.036,350.04 L638.036,351.384 C639.828,351.384 641.086667,351.832 641.812,352.728 C642.537333,353.624 642.9,355.053333 642.9,357.016 L642.9,357.016 L642.9,377.048 C642.9,378.797333 642.537333,380.002667 641.812,380.664 C641.086667,381.325333 639.828,381.656 638.036,381.656 L638.036,381.656 L638.036,383 C641.961333,382.829333 644.478667,382.744 645.588,382.744 C646.782667,382.744 649.556,382.808 653.908,382.936 L653.908,382.936 L655.444,383 Z M680.276,383 L680.276,381.656 C678.484,381.656 677.225333,381.325333 676.5,380.664 C675.774667,380.002667 675.412,378.797333 675.412,377.048 L675.412,377.048 L675.412,332.824 C673.662667,333.421333 671.444,333.72 668.756,333.72 C667.433333,333.72 666.110667,333.656 664.788,333.528 L664.788,333.528 L664.788,334.872 C666.58,334.872 667.838667,335.32 668.564,336.216 C669.289333,337.112 669.652,338.541333 669.652,340.504 L669.652,340.504 L669.652,377.048 C669.652,378.797333 669.289333,380.002667 668.564,380.664 C667.838667,381.325333 666.58,381.656 664.788,381.656 L664.788,381.656 L664.788,383 C668.713333,382.829333 671.294667,382.744 672.532,382.744 C673.769333,382.744 676.350667,382.829333 680.276,383 L680.276,383 Z M707.668,383.448 C708.862667,383.448 709.854667,383.266667 710.644,382.904 C711.433333,382.541333 712.382667,381.933333 713.492,381.08 L713.492,381.08 L712.788,379.992 C712.276,380.418667 711.796,380.749333 711.348,380.984 C710.9,381.218667 710.42,381.336 709.908,381.336 C709.182667,381.336 708.670667,381.101333 708.372,380.632 C708.073333,380.162667 707.924,379.394667 707.924,378.328 L707.924,378.328 L707.924,360.536 C707.924,358.274667 707.742667,356.450667 707.38,355.064 C707.017333,353.677333 706.302667,352.493333 705.236,351.512 C703.529333,349.933333 701.012,349.144 697.684,349.144 C695.806667,349.144 694.078667,349.378667 692.5,349.848 C690.921333,350.317333 689.62,350.914667 688.596,351.64 C687.614667,352.322667 686.878667,353.005333 686.388,353.688 C685.897333,354.370667 685.652,355.224 685.652,356.248 C685.652,357.314667 685.950667,358.221333 686.548,358.968 C687.145333,359.714667 688.041333,360.088 689.236,360.088 C690.302667,360.088 691.177333,359.778667 691.86,359.16 C692.542667,358.541333 692.884,357.698667 692.884,356.632 C692.884,355.608 692.596,354.754667 692.02,354.072 C691.444,353.389333 690.729333,352.941333 689.876,352.728 C691.113333,351.192 693.225333,350.424 696.212,350.424 C698.089333,350.424 699.550667,350.882667 700.596,351.8 C701.641333,352.717333 702.164,354.413333 702.164,356.888 L702.164,356.888 L702.164,360.856 C702.164,362.008 701.588,362.925333 700.436,363.608 C699.284,364.290667 697.513333,365.037333 695.124,365.848 C692.777333,366.658667 690.889333,367.426667 689.46,368.152 C688.030667,368.877333 686.793333,369.858667 685.748,371.096 C684.702667,372.333333 684.18,373.912 684.18,375.832 C684.18,378.221333 684.830667,380.088 686.132,381.432 C687.433333,382.776 689.428,383.448 692.116,383.448 C694.206667,383.448 696.084,383.032 697.748,382.2 C699.412,381.368 700.884,379.885333 702.164,377.752 C702.164,379.501333 702.569333,380.888 703.38,381.912 C704.190667,382.936 705.62,383.448 707.668,383.448 Z M694.932,380.888 C693.396,380.888 692.158667,380.397333 691.22,379.416 C690.281333,378.434667 689.812,376.984 689.812,375.064 C689.812,373.4 690.174667,372.034667 690.9,370.968 C691.625333,369.901333 692.489333,369.058667 693.492,368.44 C694.494667,367.821333 695.806667,367.170667 697.428,366.488 C698.836,365.848 699.881333,365.336 700.564,364.952 C701.246667,364.568 701.78,364.077333 702.164,363.48 L702.164,363.48 L702.164,376.024 C700.158667,379.266667 697.748,380.888 694.932,380.888 Z M722.708,342.232 C723.817333,342.232 724.777333,341.826667 725.588,341.016 C726.398667,340.205333 726.804,339.245333 726.804,338.136 C726.804,337.026667 726.398667,336.066667 725.588,335.256 C724.777333,334.445333 723.817333,334.04 722.708,334.04 C721.598667,334.04 720.638667,334.445333 719.828,335.256 C719.017333,336.066667 718.612,337.026667 718.612,338.136 C718.612,339.245333 719.017333,340.205333 719.828,341.016 C720.638667,341.826667 721.598667,342.232 722.708,342.232 Z M730.9,383 L730.9,381.656 C729.108,381.656 727.849333,381.325333 727.124,380.664 C726.398667,380.002667 726.036,378.797333 726.036,377.048 L726.036,377.048 L726.036,349.336 C724.286667,349.933333 722.068,350.232 719.38,350.232 C718.1,350.232 716.777333,350.168 715.412,350.04 L715.412,350.04 L715.412,351.384 C717.204,351.384 718.462667,351.832 719.188,352.728 C719.913333,353.624 720.276,355.053333 720.276,357.016 L720.276,357.016 L720.276,377.048 C720.276,378.797333 719.913333,380.002667 719.188,380.664 C718.462667,381.325333 717.204,381.656 715.412,381.656 L715.412,381.656 L715.412,383 C719.337333,382.829333 721.918667,382.744 723.156,382.744 C724.393333,382.744 726.974667,382.829333 730.9,383 L730.9,383 Z M748.436,383.896 C750.654667,383.896 752.532,383.394667 754.068,382.392 C755.604,381.389333 756.756,379.928 757.524,378.008 L757.524,378.008 L757.524,383.704 C759.273333,383.106667 761.492,382.808 764.18,382.808 C765.502667,382.808 766.825333,382.872 768.148,383 L768.148,383 L768.148,381.656 C766.356,381.656 765.097333,381.208 764.372,380.312 C763.646667,379.416 763.284,377.986667 763.284,376.024 L763.284,376.024 L763.284,332.824 C761.534667,333.421333 759.316,333.72 756.628,333.72 C755.348,333.72 754.025333,333.656 752.66,333.528 L752.66,333.528 L752.66,334.872 C754.452,334.872 755.710667,335.32 756.436,336.216 C757.161333,337.112 757.524,338.541333 757.524,340.504 L757.524,340.504 L757.524,352.92 C756.713333,351.64 755.636,350.690667 754.292,350.072 C752.948,349.453333 751.465333,349.144 749.844,349.144 C747.198667,349.144 744.777333,349.805333 742.58,351.128 C740.382667,352.450667 738.633333,354.424 737.332,357.048 C736.030667,359.672 735.38,362.84 735.38,366.552 C735.337333,372.226667 736.478667,376.536 738.804,379.48 C741.129333,382.424 744.34,383.896 748.436,383.896 Z M750.292,381.976 C747.433333,381.976 745.257333,380.685333 743.764,378.104 C742.270667,375.522667 741.545333,371.672 741.588,366.552 C741.545333,361.346667 742.334667,357.389333 743.956,354.68 C745.577333,351.970667 747.710667,350.616 750.356,350.616 C753.982667,350.616 756.372,352.258667 757.524,355.544 L757.524,355.544 L757.524,374.616 C757.012,376.962667 756.094667,378.776 754.772,380.056 C753.449333,381.336 751.956,381.976 750.292,381.976 Z M794.58,342.232 C795.689333,342.232 796.649333,341.826667 797.46,341.016 C798.270667,340.205333 798.676,339.245333 798.676,338.136 C798.676,337.026667 798.270667,336.066667 797.46,335.256 C796.649333,334.445333 795.689333,334.04 794.58,334.04 C793.470667,334.04 792.510667,334.445333 791.7,335.256 C790.889333,336.066667 790.484,337.026667 790.484,338.136 C790.484,339.245333 790.889333,340.205333 791.7,341.016 C792.510667,341.826667 793.470667,342.232 794.58,342.232 Z M802.772,383 L802.772,381.656 C800.98,381.656 799.721333,381.325333 798.996,380.664 C798.270667,380.002667 797.908,378.797333 797.908,377.048 L797.908,377.048 L797.908,349.336 C796.158667,349.933333 793.94,350.232 791.252,350.232 C789.972,350.232 788.649333,350.168 787.284,350.04 L787.284,350.04 L787.284,351.384 C789.076,351.384 790.334667,351.832 791.06,352.728 C791.785333,353.624 792.148,355.053333 792.148,357.016 L792.148,357.016 L792.148,377.048 C792.148,378.797333 791.785333,380.002667 791.06,380.664 C790.334667,381.325333 789.076,381.656 787.284,381.656 L787.284,381.656 L787.284,383 C791.209333,382.829333 793.790667,382.744 795.028,382.744 C796.265333,382.744 798.846667,382.829333 802.772,383 L802.772,383 Z M841.428,383 L841.428,381.656 C839.636,381.656 838.377333,381.325333 837.652,380.664 C836.926667,380.002667 836.564,378.797333 836.564,377.048 L836.564,377.048 L836.564,359.96 C836.564,357.784 836.393333,356.056 836.052,354.776 C835.710667,353.496 835.134667,352.429333 834.324,351.576 C832.788,349.954667 830.526667,349.144 827.54,349.144 C825.150667,349.144 823.006667,349.752 821.108,350.968 C819.209333,352.184 817.726667,354.157333 816.66,356.888 L816.66,356.888 L816.66,349.336 C814.910667,349.933333 812.692,350.232 810.004,350.232 C808.724,350.232 807.401333,350.168 806.036,350.04 L806.036,350.04 L806.036,351.384 C807.828,351.384 809.086667,351.832 809.812,352.728 C810.537333,353.624 810.9,355.053333 810.9,357.016 L810.9,357.016 L810.9,377.048 C810.9,378.797333 810.537333,380.002667 809.812,380.664 C809.086667,381.325333 807.828,381.656 806.036,381.656 L806.036,381.656 L806.036,383 C809.961333,382.829333 812.521333,382.744 813.716,382.744 C814.910667,382.744 817.3,382.829333 820.884,383 L820.884,383 L820.884,381.656 C819.305333,381.656 818.206667,381.325333 817.588,380.664 C816.969333,380.002667 816.66,378.797333 816.66,377.048 L816.66,377.048 L816.66,362.84 C816.66,360.664 817.033333,358.690667 817.78,356.92 C818.526667,355.149333 819.582667,353.752 820.948,352.728 C822.313333,351.704 823.870667,351.192 825.62,351.192 C827.710667,351.192 829.097333,351.821333 829.78,353.08 C830.462667,354.338667 830.804,356.162667 830.804,358.552 L830.804,358.552 L830.804,377.048 C830.804,378.797333 830.494667,380.002667 829.876,380.664 C829.257333,381.325333 828.158667,381.656 826.58,381.656 L826.58,381.656 L826.58,383 C830.164,382.829333 832.553333,382.744 833.748,382.744 C834.942667,382.744 837.502667,382.829333 841.428,383 L841.428,383 Z M340.948,468.896 C342.910667,468.896 344.692,468.608 346.292,468.032 C347.892,467.456 349.438667,466.592 350.932,465.44 C351.572,464.970667 352.02,464.672 352.276,464.544 C352.532,464.416 352.788,464.352 353.044,464.352 C353.556,464.352 353.961333,464.746667 354.26,465.536 C354.558667,466.325333 354.729333,467.146667 354.772,468 L354.772,468 L356.052,468 L356.052,455.328 C356.052,453.706667 356.126667,452.533333 356.276,451.808 C356.425333,451.082667 356.724,450.592 357.172,450.336 C357.62,450.08 358.334667,449.909333 359.316,449.824 L359.316,449.824 L359.316,448.544 C357.78,448.672 355.561333,448.736 352.66,448.736 L352.066981,448.735468 C348.548222,448.729086 345.737895,448.665263 343.636,448.544 L343.636,448.544 L343.636,449.824 C345.556,449.909333 346.942667,450.101333 347.796,450.4 C348.649333,450.698667 349.246667,451.253333 349.588,452.064 C349.929333,452.874667 350.1,454.176 350.1,455.968 L350.1,455.968 L350.1,462.112 C350.1,462.965333 349.982667,463.637333 349.748,464.128 C349.513333,464.618667 349.012,465.12 348.244,465.632 C346.366667,466.954667 344.148,467.616 341.588,467.616 C336.34,467.616 332.489333,465.834667 330.036,462.272 C327.582667,458.709333 326.356,453.088 326.356,445.408 C326.356,440.885333 326.932,436.928 328.084,433.536 C329.236,430.144 330.878667,427.530667 333.012,425.696 C335.145333,423.861333 337.62,422.944 340.436,422.944 C342.612,422.944 344.692,423.392 346.676,424.288 C348.66,425.184 350.270667,426.4 351.508,427.936 C352.404,429.045333 353.065333,430.336 353.492,431.808 C353.918667,433.28 354.324,435.146667 354.708,437.408 L354.708,437.408 L356.18,437.408 C356.18,430.368 356.265333,425.461333 356.436,422.688 L356.436,422.688 L354.964,422.688 C354.708,425.290667 354.174667,426.592 353.364,426.592 C353.065333,426.592 352.638667,426.378667 352.084,425.952 C350.164,424.586667 348.393333,423.552 346.772,422.848 C345.150667,422.144 343.081333,421.792 340.564,421.792 C336.596,421.792 333.054667,422.784 329.94,424.768 C326.825333,426.752 324.382667,429.589333 322.612,433.28 C320.841333,436.970667 319.956,441.248 319.956,446.112 C319.956,450.848 320.788,454.922667 322.452,458.336 C324.116,461.749333 326.516,464.362667 329.652,466.176 C332.788,467.989333 336.553333,468.896 340.948,468.896 Z M379.028,468.896 C383.38,468.896 386.889333,467.466667 389.556,464.608 C392.222667,461.749333 393.556,457.397333 393.556,451.552 C393.556,445.706667 392.222667,441.344 389.556,438.464 C386.889333,435.584 383.38,434.144 379.028,434.144 C374.676,434.144 371.166667,435.584 368.5,438.464 C365.833333,441.344 364.5,445.706667 364.5,451.552 C364.5,457.397333 365.833333,461.749333 368.5,464.608 C371.166667,467.466667 374.676,468.896 379.028,468.896 Z M379.028,467.616 C376.468,467.616 374.441333,466.314667 372.948,463.712 C371.454667,461.109333 370.708,457.056 370.708,451.552 C370.708,446.048 371.454667,441.984 372.948,439.36 C374.441333,436.736 376.468,435.424 379.028,435.424 C381.588,435.424 383.614667,436.736 385.108,439.36 C386.601333,441.984 387.348,446.048 387.348,451.552 C387.348,457.056 386.601333,461.109333 385.108,463.712 C383.614667,466.314667 381.588,467.616 379.028,467.616 Z M414.1,468.896 C418.452,468.896 421.961333,467.466667 424.628,464.608 C427.294667,461.749333 428.628,457.397333 428.628,451.552 C428.628,445.706667 427.294667,441.344 424.628,438.464 C421.961333,435.584 418.452,434.144 414.1,434.144 C409.748,434.144 406.238667,435.584 403.572,438.464 C400.905333,441.344 399.572,445.706667 399.572,451.552 C399.572,457.397333 400.905333,461.749333 403.572,464.608 C406.238667,467.466667 409.748,468.896 414.1,468.896 Z M414.1,467.616 C411.54,467.616 409.513333,466.314667 408.02,463.712 C406.526667,461.109333 405.78,457.056 405.78,451.552 C405.78,446.048 406.526667,441.984 408.02,439.36 C409.513333,436.736 411.54,435.424 414.1,435.424 C416.66,435.424 418.686667,436.736 420.18,439.36 C421.673333,441.984 422.42,446.048 422.42,451.552 C422.42,457.056 421.673333,461.109333 420.18,463.712 C418.686667,466.314667 416.66,467.616 414.1,467.616 Z M445.268,480.032 C448.894667,480.032 451.988,479.498667 454.548,478.432 C457.108,477.365333 459.049333,475.957333 460.372,474.208 C461.694667,472.458667 462.356,470.56 462.356,468.512 C462.356,465.994667 461.406667,464.106667 459.508,462.848 C457.609333,461.589333 455.209333,460.96 452.308,460.96 L452.308,460.96 L444.308,460.96 C442.26,460.96 441.236,460.277333 441.236,458.912 C441.236,458.058667 441.598667,457.290667 442.324,456.608 C443.049333,455.925333 444.116,455.178667 445.524,454.368 L445.524,454.368 L445.588,454.368 C448.958667,454.368 451.668,453.525333 453.716,451.84 C455.764,450.154667 456.788,447.626667 456.788,444.256 C456.788,441.952 456.297333,440.053333 455.316,438.56 C455.828,437.706667 456.404,436.992 457.044,436.416 C457.684,435.84 458.558667,435.317333 459.668,434.848 C459.241333,435.957333 459.028,436.938667 459.028,437.792 C459.028,438.773333 459.294667,439.52 459.828,440.032 C460.361333,440.544 461.012,440.8 461.78,440.8 C462.590667,440.8 463.326667,440.501333 463.988,439.904 C464.649333,439.306667 464.98,438.410667 464.98,437.216 C464.98,436.021333 464.638667,435.104 463.956,434.464 C463.273333,433.824 462.377333,433.504 461.268,433.504 C460.030667,433.504 458.793333,433.877333 457.556,434.624 C456.318667,435.370667 455.294667,436.32 454.484,437.472 C452.564,435.253333 449.598667,434.144 445.588,434.144 C442.217333,434.144 439.508,434.986667 437.46,436.672 C435.412,438.357333 434.388,440.885333 434.388,444.256 C434.388,447.285333 435.230667,449.632 436.916,451.296 C438.601333,452.96 440.852,453.941333 443.668,454.24 C441.449333,455.392 439.86,456.565333 438.9,457.76 C437.94,458.954667 437.46,460.213333 437.46,461.536 C437.46,463.456 438.217333,464.736 439.732,465.376 C441.246667,466.016 443.262667,466.336 445.78,466.336 L445.78,466.336 L450.516,466.336 C453.289333,466.336 455.22,466.762667 456.308,467.616 C457.396,468.469333 457.94,469.664 457.94,471.2 C457.94,473.845333 456.766667,475.797333 454.42,477.056 C452.073333,478.314667 449.257333,478.944 445.972,478.944 C442.985333,478.944 440.606667,478.421333 438.836,477.376 C437.065333,476.330667 436.18,474.826667 436.18,472.864 C436.18,471.754667 436.457333,470.752 437.012,469.856 C437.566667,468.96 438.313333,468.362667 439.252,468.064 L439.252,468.064 L438.868,467.04 C436.777333,467.637333 435.145333,468.469333 433.972,469.536 C432.798667,470.602667 432.212,471.861333 432.212,473.312 C432.212,475.530667 433.46,477.205333 435.956,478.336 C438.452,479.466667 441.556,480.032 445.268,480.032 Z M445.588,453.216 C443.881333,453.216 442.590667,452.544 441.716,451.2 C440.841333,449.856 440.404,447.541333 440.404,444.256 C440.404,440.970667 440.841333,438.656 441.716,437.312 C442.590667,435.968 443.881333,435.296 445.588,435.296 C447.294667,435.296 448.585333,435.968 449.46,437.312 C450.334667,438.656 450.772,440.970667 450.772,444.256 C450.772,447.541333 450.334667,449.856 449.46,451.2 C448.585333,452.544 447.294667,453.216 445.588,453.216 Z M482.324,468 L482.324,466.656 C480.532,466.656 479.273333,466.325333 478.548,465.664 C477.822667,465.002667 477.46,463.797333 477.46,462.048 L477.46,462.048 L477.46,417.824 C475.710667,418.421333 473.492,418.72 470.804,418.72 C469.481333,418.72 468.158667,418.656 466.836,418.528 L466.836,418.528 L466.836,419.872 C468.628,419.872 469.886667,420.32 470.612,421.216 C471.337333,422.112 471.7,423.541333 471.7,425.504 L471.7,425.504 L471.7,462.048 C471.7,463.797333 471.337333,465.002667 470.612,465.664 C469.886667,466.325333 468.628,466.656 466.836,466.656 L466.836,466.656 L466.836,468 C470.761333,467.829333 473.342667,467.744 474.58,467.744 C475.817333,467.744 478.398667,467.829333 482.324,468 L482.324,468 Z M500.756,468.896 C503.742667,468.896 506.292,468.053333 508.404,466.368 C510.516,464.682667 511.956,462.666667 512.724,460.32 L512.724,460.32 L511.444,459.808 C510.377333,462.112 509.054667,463.754667 507.476,464.736 C505.897333,465.717333 504.084,466.208 502.036,466.208 C500.372,466.208 498.782667,465.642667 497.268,464.512 C495.753333,463.381333 494.537333,461.770667 493.62,459.68 C492.702667,457.589333 492.244,455.136 492.244,452.32 C492.244,450.784 492.308,449.418667 492.436,448.224 L492.436,448.224 L512.468,448.224 C512.468,443.488 511.433333,439.957333 509.364,437.632 C507.294667,435.306667 504.34,434.144 500.5,434.144 C497.598667,434.144 495.06,434.88 492.884,436.352 C490.708,437.824 489.022667,439.925333 487.828,442.656 C486.633333,445.386667 486.036,448.608 486.036,452.32 C486.036,455.605333 486.622667,458.496 487.796,460.992 C488.969333,463.488 490.665333,465.429333 492.884,466.816 C495.102667,468.202667 497.726667,468.896 500.756,468.896 Z M506.324,447.008 L492.372,447.008 C492.713333,443.168 493.609333,440.266667 495.06,438.304 C496.510667,436.341333 498.238667,435.36 500.244,435.36 C502.292,435.36 503.838667,436.469333 504.884,438.688 C505.929333,440.906667 506.409333,443.68 506.324,447.008 L506.324,447.008 Z M557.908,468.32 L573.332,426.912 L573.332,461.216 C573.332,462.837333 573.204,464.010667 572.948,464.736 C572.692,465.461333 572.212,465.952 571.508,466.208 C570.804,466.464 569.684,466.634667 568.148,466.72 L568.148,466.72 L568.148,468 C569.94,467.872 572.670667,467.808 576.34,467.808 C579.796,467.808 582.505333,467.872 584.468,468 L584.468,468 L584.468,466.72 C582.932,466.634667 581.812,466.464 581.108,466.208 C580.404,465.952 579.924,465.461333 579.668,464.736 C579.412,464.010667 579.284,462.837333 579.284,461.216 L579.284,461.216 L579.284,429.472 C579.284,427.850667 579.412,426.677333 579.668,425.952 C579.924,425.226667 580.404,424.736 581.108,424.48 C581.812,424.224 582.932,424.053333 584.468,423.968 L584.468,423.968 L584.468,422.688 C582.505333,422.816 579.796,422.88 576.34,422.88 L573.332,422.88 L559.572,459.744 L545.492,422.688 C544.084,422.816 542.270667,422.88 540.052,422.88 C537.492,422.88 535.508,422.816 534.1,422.688 L534.1,422.688 L534.1,423.968 C535.636,424.053333 536.756,424.224 537.46,424.48 C538.164,424.736 538.644,425.226667 538.9,425.952 C539.156,426.677333 539.284,427.850667 539.284,429.472 L539.284,429.472 L539.284,460.576 C539.284,462.197333 539.156,463.424 538.9,464.256 C538.644,465.088 538.153333,465.685333 537.428,466.048 C536.702667,466.410667 535.593333,466.634667 534.1,466.72 L534.1,466.72 L534.1,468 C535.508,467.872 537.492,467.808 540.052,467.808 C542.868,467.808 545.044,467.872 546.58,468 L546.58,468 L546.58,466.72 C544.873333,466.634667 543.614667,466.410667 542.804,466.048 C541.993333,465.685333 541.449333,465.098667 541.172,464.288 C540.894667,463.477333 540.756,462.24 540.756,460.576 L540.756,460.576 L540.756,426.784 L556.884,468.32 L557.908,468.32 Z M612.82,468.448 C614.014667,468.448 615.006667,468.266667 615.796,467.904 C616.585333,467.541333 617.534667,466.933333 618.644,466.08 L618.644,466.08 L617.94,464.992 C617.428,465.418667 616.948,465.749333 616.5,465.984 C616.052,466.218667 615.572,466.336 615.06,466.336 C614.334667,466.336 613.822667,466.101333 613.524,465.632 C613.225333,465.162667 613.076,464.394667 613.076,463.328 L613.076,463.328 L613.076,445.536 C613.076,443.274667 612.894667,441.450667 612.532,440.064 C612.169333,438.677333 611.454667,437.493333 610.388,436.512 C608.681333,434.933333 606.164,434.144 602.836,434.144 C600.958667,434.144 599.230667,434.378667 597.652,434.848 C596.073333,435.317333 594.772,435.914667 593.748,436.64 C592.766667,437.322667 592.030667,438.005333 591.54,438.688 C591.049333,439.370667 590.804,440.224 590.804,441.248 C590.804,442.314667 591.102667,443.221333 591.7,443.968 C592.297333,444.714667 593.193333,445.088 594.388,445.088 C595.454667,445.088 596.329333,444.778667 597.012,444.16 C597.694667,443.541333 598.036,442.698667 598.036,441.632 C598.036,440.608 597.748,439.754667 597.172,439.072 C596.596,438.389333 595.881333,437.941333 595.028,437.728 C596.265333,436.192 598.377333,435.424 601.364,435.424 C603.241333,435.424 604.702667,435.882667 605.748,436.8 C606.793333,437.717333 607.316,439.413333 607.316,441.888 L607.316,441.888 L607.316,445.856 C607.316,447.008 606.74,447.925333 605.588,448.608 C604.436,449.290667 602.665333,450.037333 600.276,450.848 C597.929333,451.658667 596.041333,452.426667 594.612,453.152 C593.182667,453.877333 591.945333,454.858667 590.9,456.096 C589.854667,457.333333 589.332,458.912 589.332,460.832 C589.332,463.221333 589.982667,465.088 591.284,466.432 C592.585333,467.776 594.58,468.448 597.268,468.448 C599.358667,468.448 601.236,468.032 602.9,467.2 C604.564,466.368 606.036,464.885333 607.316,462.752 C607.316,464.501333 607.721333,465.888 608.532,466.912 C609.342667,467.936 610.772,468.448 612.82,468.448 Z M600.084,465.888 C598.548,465.888 597.310667,465.397333 596.372,464.416 C595.433333,463.434667 594.964,461.984 594.964,460.064 C594.964,458.4 595.326667,457.034667 596.052,455.968 C596.777333,454.901333 597.641333,454.058667 598.644,453.44 C599.646667,452.821333 600.958667,452.170667 602.58,451.488 C603.988,450.848 605.033333,450.336 605.716,449.952 C606.398667,449.568 606.932,449.077333 607.316,448.48 L607.316,448.48 L607.316,461.024 C605.310667,464.266667 602.9,465.888 600.084,465.888 Z M636.884,479.584 L636.884,478.24 C634.836,478.24 633.3,477.909333 632.276,477.248 C631.252,476.586667 630.74,475.381333 630.74,473.632 L630.74,473.632 L630.74,465.44 C631.465333,466.464 632.489333,467.296 633.812,467.936 C635.134667,468.576 636.606667,468.896 638.228,468.896 C641.513333,468.896 644.254667,468 646.452,466.208 C648.649333,464.416 650.270667,462.090667 651.316,459.232 C652.361333,456.373333 652.884,453.301333 652.884,450.016 C652.884,446.688 652.372,443.829333 651.348,441.44 C650.324,439.050667 648.905333,437.237333 647.092,436 C645.278667,434.762667 643.241333,434.144 640.98,434.144 C638.676,434.144 636.628,434.752 634.836,435.968 C633.044,437.184 631.678667,438.901333 630.74,441.12 L630.74,441.12 L630.74,434.336 C628.990667,434.933333 626.772,435.232 624.084,435.232 C622.761333,435.232 621.438667,435.168 620.116,435.04 L620.116,435.04 L620.116,436.384 C621.908,436.384 623.166667,436.832 623.892,437.728 C624.617333,438.624 624.98,440.053333 624.98,442.016 L624.98,442.016 L624.98,474.272 C624.98,475.765333 624.670667,476.8 624.052,477.376 C623.433333,477.952 622.334667,478.24 620.756,478.24 L620.756,478.24 L620.756,479.584 C624.34,479.413333 626.644,479.328 627.668,479.328 C628.862667,479.328 631.444,479.392 635.412,479.52 L635.412,479.52 L636.884,479.584 Z M637.524,467.424 C635.902667,467.424 634.516,467.050667 633.364,466.304 C632.212,465.557333 631.337333,464.565333 630.74,463.328 L630.74,463.328 L630.74,444.128 C631.422667,441.525333 632.532,439.530667 634.068,438.144 C635.604,436.757333 637.332,436.064 639.252,436.064 C644.201333,436.064 646.676,441.013333 646.676,450.912 C646.676,461.92 643.625333,467.424 637.524,467.424 Z M670.548,468.896 C673.62,468.896 676.212,468.106667 678.324,466.528 C680.436,464.949333 681.492,462.752 681.492,459.936 C681.492,458.272 681.118667,456.8 680.372,455.52 C679.625333,454.24 678.654667,453.109333 677.46,452.128 C676.265333,451.146667 674.686667,450.016 672.724,448.736 C671.956,448.224 671.38,447.861333 670.996,447.648 C668.734667,446.24 667.092,445.034667 666.068,444.032 C665.044,443.029333 664.532,441.781333 664.532,440.288 C664.532,438.752 665.022667,437.546667 666.004,436.672 C666.985333,435.797333 668.244,435.36 669.78,435.36 C672.425333,435.36 674.42,436.277333 675.764,438.112 C677.108,439.946667 678.014667,442.272 678.484,445.088 L678.484,445.088 L679.956,445.088 C679.956,439.925333 680.041333,436.298667 680.212,434.208 L680.212,434.208 L678.74,434.208 C678.569333,436.085333 678.1,437.024 677.332,437.024 C677.033333,437.024 676.649333,436.853333 676.18,436.512 C675.454667,435.872 674.494667,435.317333 673.3,434.848 C672.105333,434.378667 670.74,434.144 669.204,434.144 C666.473333,434.144 664.212,434.848 662.42,436.256 C660.628,437.664 659.732,439.712 659.732,442.4 C659.732,444.064 660.116,445.514667 660.884,446.752 C661.652,447.989333 662.601333,449.034667 663.732,449.888 C664.862667,450.741333 666.473333,451.829333 668.564,453.152 C671.124,454.773333 672.969333,456.16 674.1,457.312 C675.230667,458.464 675.796,459.872 675.796,461.536 C675.796,463.626667 675.22,465.162667 674.068,466.144 C672.916,467.125333 671.593333,467.616 670.1,467.616 C667.113333,467.616 665.001333,466.624 663.764,464.64 C662.526667,462.656 661.673333,459.658667 661.204,455.648 L661.204,455.648 L659.732,455.648 C659.732,461.749333 659.646667,466.016 659.476,468.448 L659.476,468.448 L660.948,468.448 C661.076,467.68 661.257333,467.082667 661.492,466.656 C661.726667,466.229333 661.993333,466.016 662.292,466.016 C662.505333,466.016 662.697333,466.101333 662.868,466.272 C663.678667,466.954667 664.553333,467.530667 665.492,468 C666.942667,468.597333 668.628,468.896 670.548,468.896 Z" id="SeethismapoverlaidinGoogleMaps" fill="#FFFFFF" fill-rule="nonzero"></path>
        <path d="M380.43,707 C380.178,704.444 380.052,702.14 380.052,700.088 C380.052,698.252 380.106,696.776 380.214,695.66 L380.214,695.66 L378.972,695.66 C378.72,698.324 378.324,700.358 377.784,701.762 C377.244,703.166 376.389,704.183 375.219,704.813 C374.049,705.443 372.348,705.758 370.116,705.758 L370.116,705.758 L366.174,705.758 C364.878,705.758 363.933,705.659 363.339,705.461 C362.745,705.263 362.34,704.858 362.124,704.246 C361.908,703.634 361.8,702.644 361.8,701.276 L361.8,701.276 L361.8,674.492 C361.8,673.124 361.908,672.134 362.124,671.522 C362.34,670.91 362.745,670.496 363.339,670.28 C363.933,670.064 364.878,669.92 366.174,669.848 L366.174,669.848 L366.174,668.768 C364.482,668.876 362.196,668.93 359.316,668.93 L358.83374,668.929551 C355.979668,668.924166 353.836421,668.870316 352.404,668.768 L352.404,668.768 L352.404,669.848 C353.7,669.92 354.645,670.064 355.239,670.28 C355.833,670.496 356.238,670.91 356.454,671.522 C356.67,672.134 356.778,673.124 356.778,674.492 L356.778,674.492 L356.778,701.276 C356.778,702.644 356.67,703.634 356.454,704.246 C356.238,704.858 355.833,705.272 355.239,705.488 C354.645,705.704 353.7,705.848 352.404,705.92 L352.404,705.92 L352.404,707 C355.932,706.892 361.152,706.838 368.064,706.838 C373.86,706.838 377.982,706.892 380.43,707 Z M403.812,707.378 C404.82,707.378 405.657,707.225 406.323,706.919 C406.989,706.613 407.79,706.1 408.726,705.38 L408.726,705.38 L408.132,704.462 C407.7,704.822 407.295,705.101 406.917,705.299 C406.539,705.497 406.134,705.596 405.702,705.596 C405.09,705.596 404.658,705.398 404.406,705.002 C404.154,704.606 404.028,703.958 404.028,703.058 L404.028,703.058 L404.028,688.046 C404.028,686.138 403.875,684.599 403.569,683.429 C403.263,682.259 402.66,681.26 401.76,680.432 C400.32,679.1 398.196,678.434 395.388,678.434 C393.804,678.434 392.346,678.632 391.014,679.028 C389.682,679.424 388.584,679.928 387.72,680.54 C386.892,681.116 386.271,681.692 385.857,682.268 C385.443,682.844 385.236,683.564 385.236,684.428 C385.236,685.328 385.488,686.093 385.992,686.723 C386.496,687.353 387.252,687.668 388.26,687.668 C389.16,687.668 389.898,687.407 390.474,686.885 C391.05,686.363 391.338,685.652 391.338,684.752 C391.338,683.888 391.095,683.168 390.609,682.592 C390.123,682.016 389.52,681.638 388.8,681.458 C389.844,680.162 391.626,679.514 394.146,679.514 C395.73,679.514 396.963,679.901 397.845,680.675 C398.727,681.449 399.168,682.88 399.168,684.968 L399.168,684.968 L399.168,688.316 C399.168,689.288 398.682,690.062 397.71,690.638 C396.738,691.214 395.244,691.844 393.228,692.528 C391.248,693.212 389.655,693.86 388.449,694.472 C387.243,695.084 386.199,695.912 385.317,696.956 C384.435,698 383.994,699.332 383.994,700.952 C383.994,702.968 384.543,704.543 385.641,705.677 C386.739,706.811 388.422,707.378 390.69,707.378 C392.454,707.378 394.038,707.027 395.442,706.325 C396.846,705.623 398.088,704.372 399.168,702.572 C399.168,704.048 399.51,705.218 400.194,706.082 C400.878,706.946 402.084,707.378 403.812,707.378 Z M393.066,705.218 C391.77,705.218 390.726,704.804 389.934,703.976 C389.142,703.148 388.746,701.924 388.746,700.304 C388.746,698.9 389.052,697.748 389.664,696.848 C390.276,695.948 391.005,695.237 391.851,694.715 C392.697,694.193 393.804,693.644 395.172,693.068 C396.36,692.528 397.242,692.096 397.818,691.772 C398.394,691.448 398.844,691.034 399.168,690.53 L399.168,690.53 L399.168,701.114 C397.476,703.85 395.442,705.218 393.066,705.218 Z M421.146,707.756 C423.018,707.756 424.746,707.234 426.33,706.19 C427.914,705.146 429.138,703.508 430.002,701.276 L430.002,701.276 L430.002,707.648 C431.478,707.144 433.35,706.892 435.618,706.892 C436.734,706.892 437.85,706.946 438.966,707.054 L438.966,707.054 L438.966,705.92 C437.454,705.92 436.392,705.542 435.78,704.786 C435.168,704.03 434.862,702.824 434.862,701.168 L434.862,701.168 L434.862,678.596 C433.386,679.1 431.514,679.352 429.246,679.352 C428.13,679.352 427.014,679.298 425.898,679.19 L425.898,679.19 L425.898,680.324 C427.41,680.324 428.472,680.702 429.084,681.458 C429.696,682.214 430.002,683.42 430.002,685.076 L430.002,685.076 L430.002,696.254 C430.002,698.054 429.687,699.701 429.057,701.195 C428.427,702.689 427.554,703.868 426.438,704.732 C425.322,705.596 424.08,706.028 422.712,706.028 C421.488,706.028 420.579,705.758 419.985,705.218 C419.391,704.678 419.013,703.985 418.851,703.139 C418.689,702.293 418.608,701.186 418.608,699.818 L418.608,699.818 L418.608,678.596 C417.132,679.1 415.26,679.352 412.992,679.352 C411.876,679.352 410.76,679.298 409.644,679.19 L409.644,679.19 L409.644,680.324 C411.156,680.324 412.218,680.702 412.83,681.458 C413.442,682.214 413.748,683.42 413.748,685.076 L413.748,685.076 L413.748,698.63 C413.748,700.394 413.883,701.834 414.153,702.95 C414.423,704.066 414.882,704.984 415.53,705.704 C416.826,707.072 418.698,707.756 421.146,707.756 Z M471.582,707 L471.582,705.866 C470.07,705.866 469.008,705.587 468.396,705.029 C467.784,704.471 467.478,703.454 467.478,701.978 L467.478,701.978 L467.478,687.56 C467.478,685.724 467.334,684.266 467.046,683.186 C466.758,682.106 466.272,681.206 465.588,680.486 C464.292,679.118 462.384,678.434 459.864,678.434 C457.848,678.434 456.039,678.947 454.437,679.973 C452.835,680.999 451.584,682.664 450.684,684.968 L450.684,684.968 L450.684,678.596 C449.208,679.1 447.336,679.352 445.068,679.352 C443.988,679.352 442.872,679.298 441.72,679.19 L441.72,679.19 L441.72,680.324 C443.232,680.324 444.294,680.702 444.906,681.458 C445.518,682.214 445.824,683.42 445.824,685.076 L445.824,685.076 L445.824,701.978 C445.824,703.454 445.518,704.471 444.906,705.029 C444.294,705.587 443.232,705.866 441.72,705.866 L441.72,705.866 L441.72,707 C445.032,706.856 447.192,706.784 448.2,706.784 C449.208,706.784 451.224,706.856 454.248,707 L454.248,707 L454.248,705.866 C452.916,705.866 451.989,705.587 451.467,705.029 C450.945,704.471 450.684,703.454 450.684,701.978 L450.684,701.978 L450.684,689.99 C450.684,688.154 450.999,686.489 451.629,684.995 C452.259,683.501 453.15,682.322 454.302,681.458 C455.454,680.594 456.768,680.162 458.244,680.162 C460.008,680.162 461.178,680.693 461.754,681.755 C462.33,682.817 462.618,684.356 462.618,686.372 L462.618,686.372 L462.618,701.978 C462.618,703.454 462.357,704.471 461.835,705.029 C461.313,705.587 460.386,705.866 459.054,705.866 L459.054,705.866 L459.054,707 C462.078,706.856 464.094,706.784 465.102,706.784 C466.11,706.784 468.27,706.856 471.582,707 L471.582,707 Z M486.81,707.756 C489.474,707.756 491.643,707.018 493.317,705.542 C494.991,704.066 496.134,702.302 496.746,700.25 L496.746,700.25 L495.72,699.872 C494.82,701.78 493.677,703.184 492.291,704.084 C490.905,704.984 489.438,705.434 487.89,705.434 C485.586,705.434 483.714,704.417 482.274,702.383 C480.834,700.349 480.114,697.1 480.114,692.636 C480.114,689.432 480.492,686.849 481.248,684.887 C482.004,682.925 482.958,681.521 484.11,680.675 C485.262,679.829 486.504,679.406 487.836,679.406 C488.88,679.406 489.861,679.622 490.779,680.054 C491.697,680.486 492.336,681.026 492.696,681.674 C492.048,681.854 491.508,682.205 491.076,682.727 C490.644,683.249 490.428,683.888 490.428,684.644 C490.428,685.472 490.716,686.129 491.292,686.615 C491.868,687.101 492.57,687.344 493.398,687.344 C494.226,687.344 494.91,687.074 495.45,686.534 C495.99,685.994 496.26,685.256 496.26,684.32 C496.26,682.664 495.414,681.278 493.722,680.162 C491.958,679.01 489.87,678.434 487.458,678.434 C485.01,678.434 482.832,679.073 480.924,680.351 C479.016,681.629 477.531,683.402 476.469,685.67 C475.407,687.938 474.876,690.53 474.876,693.446 C474.876,696.326 475.398,698.855 476.442,701.033 C477.486,703.211 478.917,704.876 480.735,706.028 C482.553,707.18 484.578,707.756 486.81,707.756 Z M529.578,707 L529.578,705.866 C528.066,705.866 527.004,705.587 526.392,705.029 C525.78,704.471 525.474,703.454 525.474,701.978 L525.474,701.978 L525.474,687.56 C525.474,685.724 525.33,684.266 525.042,683.186 C524.754,682.106 524.268,681.206 523.584,680.486 C522.288,679.118 520.38,678.434 517.86,678.434 C515.844,678.434 514.035,678.947 512.433,679.973 C510.831,680.999 509.58,682.646 508.68,684.914 L508.68,684.914 L508.68,664.718 C507.204,665.222 505.332,665.474 503.064,665.474 C501.984,665.474 500.868,665.42 499.716,665.312 L499.716,665.312 L499.716,666.446 C501.228,666.446 502.29,666.824 502.902,667.58 C503.514,668.336 503.82,669.542 503.82,671.198 L503.82,671.198 L503.82,701.978 C503.82,703.454 503.514,704.471 502.902,705.029 C502.29,705.587 501.228,705.866 499.716,705.866 L499.716,705.866 L499.716,707 C503.028,706.856 505.188,706.784 506.196,706.784 C507.204,706.784 509.22,706.856 512.244,707 L512.244,707 L512.244,705.866 C510.912,705.866 509.985,705.587 509.463,705.029 C508.941,704.471 508.68,703.454 508.68,701.978 L508.68,701.978 L508.68,689.936 C508.68,688.064 509.004,686.381 509.652,684.887 C510.3,683.393 511.191,682.232 512.325,681.404 C513.459,680.576 514.764,680.162 516.24,680.162 C518.004,680.162 519.174,680.693 519.75,681.755 C520.326,682.817 520.614,684.356 520.614,686.372 L520.614,686.372 L520.614,701.978 C520.614,703.454 520.353,704.471 519.831,705.029 C519.309,705.587 518.382,705.866 517.05,705.866 L517.05,705.866 L517.05,707 C520.074,706.856 522.09,706.784 523.098,706.784 C524.106,706.784 526.266,706.856 529.578,707 L529.578,707 Z M566.19,707.27 L579.204,672.332 L579.204,701.276 C579.204,702.644 579.096,703.634 578.88,704.246 C578.664,704.858 578.259,705.272 577.665,705.488 C577.071,705.704 576.126,705.848 574.83,705.92 L574.83,705.92 L574.83,707 C576.342,706.892 578.646,706.838 581.742,706.838 C584.658,706.838 586.944,706.892 588.6,707 L588.6,707 L588.6,705.92 C587.304,705.848 586.359,705.704 585.765,705.488 C585.171,705.272 584.766,704.858 584.55,704.246 C584.334,703.634 584.226,702.644 584.226,701.276 L584.226,701.276 L584.226,674.492 C584.226,673.124 584.334,672.134 584.55,671.522 C584.766,670.91 585.171,670.496 585.765,670.28 C586.359,670.064 587.304,669.92 588.6,669.848 L588.6,669.848 L588.6,668.768 C586.944,668.876 584.658,668.93 581.742,668.93 L579.204,668.93 L567.594,700.034 L555.714,668.768 C554.526,668.876 552.996,668.93 551.124,668.93 C548.964,668.93 547.29,668.876 546.102,668.768 L546.102,668.768 L546.102,669.848 C547.398,669.92 548.343,670.064 548.937,670.28 C549.531,670.496 549.936,670.91 550.152,671.522 C550.368,672.134 550.476,673.124 550.476,674.492 L550.476,674.492 L550.476,700.736 C550.476,702.104 550.368,703.139 550.152,703.841 C549.936,704.543 549.522,705.047 548.91,705.353 C548.298,705.659 547.362,705.848 546.102,705.92 L546.102,705.92 L546.102,707 C547.29,706.892 548.964,706.838 551.124,706.838 C553.5,706.838 555.336,706.892 556.632,707 L556.632,707 L556.632,705.92 C555.192,705.848 554.13,705.659 553.446,705.353 C552.762,705.047 552.303,704.552 552.069,703.868 C551.835,703.184 551.718,702.14 551.718,700.736 L551.718,700.736 L551.718,672.224 L565.326,707.27 L566.19,707.27 Z M612.522,707.378 C613.53,707.378 614.367,707.225 615.033,706.919 C615.699,706.613 616.5,706.1 617.436,705.38 L617.436,705.38 L616.842,704.462 C616.41,704.822 616.005,705.101 615.627,705.299 C615.249,705.497 614.844,705.596 614.412,705.596 C613.8,705.596 613.368,705.398 613.116,705.002 C612.864,704.606 612.738,703.958 612.738,703.058 L612.738,703.058 L612.738,688.046 C612.738,686.138 612.585,684.599 612.279,683.429 C611.973,682.259 611.37,681.26 610.47,680.432 C609.03,679.1 606.906,678.434 604.098,678.434 C602.514,678.434 601.056,678.632 599.724,679.028 C598.392,679.424 597.294,679.928 596.43,680.54 C595.602,681.116 594.981,681.692 594.567,682.268 C594.153,682.844 593.946,683.564 593.946,684.428 C593.946,685.328 594.198,686.093 594.702,686.723 C595.206,687.353 595.962,687.668 596.97,687.668 C597.87,687.668 598.608,687.407 599.184,686.885 C599.76,686.363 600.048,685.652 600.048,684.752 C600.048,683.888 599.805,683.168 599.319,682.592 C598.833,682.016 598.23,681.638 597.51,681.458 C598.554,680.162 600.336,679.514 602.856,679.514 C604.44,679.514 605.673,679.901 606.555,680.675 C607.437,681.449 607.878,682.88 607.878,684.968 L607.878,684.968 L607.878,688.316 C607.878,689.288 607.392,690.062 606.42,690.638 C605.448,691.214 603.954,691.844 601.938,692.528 C599.958,693.212 598.365,693.86 597.159,694.472 C595.953,695.084 594.909,695.912 594.027,696.956 C593.145,698 592.704,699.332 592.704,700.952 C592.704,702.968 593.253,704.543 594.351,705.677 C595.449,706.811 597.132,707.378 599.4,707.378 C601.164,707.378 602.748,707.027 604.152,706.325 C605.556,705.623 606.798,704.372 607.878,702.572 C607.878,704.048 608.22,705.218 608.904,706.082 C609.588,706.946 610.794,707.378 612.522,707.378 Z M601.776,705.218 C600.48,705.218 599.436,704.804 598.644,703.976 C597.852,703.148 597.456,701.924 597.456,700.304 C597.456,698.9 597.762,697.748 598.374,696.848 C598.986,695.948 599.715,695.237 600.561,694.715 C601.407,694.193 602.514,693.644 603.882,693.068 C605.07,692.528 605.952,692.096 606.528,691.772 C607.104,691.448 607.554,691.034 607.878,690.53 L607.878,690.53 L607.878,701.114 C606.186,703.85 604.152,705.218 601.776,705.218 Z M632.826,716.774 L632.826,715.64 C631.098,715.64 629.802,715.361 628.938,714.803 C628.074,714.245 627.642,713.228 627.642,711.752 L627.642,711.752 L627.642,704.84 C628.254,705.704 629.118,706.406 630.234,706.946 C631.35,707.486 632.592,707.756 633.96,707.756 C636.732,707.756 639.045,707 640.899,705.488 C642.753,703.976 644.121,702.014 645.003,699.602 C645.885,697.19 646.326,694.598 646.326,691.826 C646.326,689.018 645.894,686.606 645.03,684.59 C644.166,682.574 642.969,681.044 641.439,680 C639.909,678.956 638.19,678.434 636.282,678.434 C634.338,678.434 632.61,678.947 631.098,679.973 C629.586,680.999 628.434,682.448 627.642,684.32 L627.642,684.32 L627.642,678.596 C626.166,679.1 624.294,679.352 622.026,679.352 C620.91,679.352 619.794,679.298 618.678,679.19 L618.678,679.19 L618.678,680.324 C620.19,680.324 621.252,680.702 621.864,681.458 C622.476,682.214 622.782,683.42 622.782,685.076 L622.782,685.076 L622.782,712.292 C622.782,713.552 622.521,714.425 621.999,714.911 C621.477,715.397 620.55,715.64 619.218,715.64 L619.218,715.64 L619.218,716.774 C622.242,716.63 624.186,716.558 625.05,716.558 C626.058,716.558 628.236,716.612 631.584,716.72 L631.584,716.72 L632.826,716.774 Z M633.366,706.514 C631.998,706.514 630.828,706.199 629.856,705.569 C628.884,704.939 628.146,704.102 627.642,703.058 L627.642,703.058 L627.642,686.858 C628.218,684.662 629.154,682.979 630.45,681.809 C631.746,680.639 633.204,680.054 634.824,680.054 C639,680.054 641.088,684.23 641.088,692.582 C641.088,701.87 638.514,706.514 633.366,706.514 Z" id="LaunchMap" fill="#FFFFFF" fill-rule="nonzero"></path>
        <rect id="Rectangle" stroke="#FFFFFF" stroke-width="8" opacity="0.5" x="239" y="627" width="521" height="126"></rect>
    </g>
</svg>