<?xml version="1.0" encoding="UTF-8"?>
<svg width="1000px" height="1000px" viewBox="0 0 1000 1000" version="1.1" xmlns="http://www.w3.org/2000/svg" xmlns:xlink="http://www.w3.org/1999/xlink">
    <title>MapCTA1</title>
    <g id="MapCTA1" stroke="none" stroke-width="1" fill="none" fill-rule="evenodd">
        <rect id="Rectangle" fill="#6E9B75" x="0" y="0" width="1000" height="1000"></rect>
        <path d="M381.581,365.708 C389.063667,365.708 395.245,363.695 400.125,359.669 C405.005,355.643 407.445,349.929333 407.445,342.528 C407.445,338.38 406.550333,334.760667 404.761,331.67 C402.971667,328.579333 400.592667,325.834333 397.624,323.435 C394.655333,321.035667 390.609,318.25 385.485,315.078 L385.485,315.078 L381.947,312.882 C377.880333,310.360667 374.749,308.286667 372.553,306.66 C370.357,305.033333 368.547333,303.081333 367.124,300.804 C365.700667,298.526667 364.989,295.842667 364.989,292.752 C364.989,288.604 366.371667,285.208333 369.137,282.565 C371.902333,279.921667 375.481,278.6 379.873,278.6 C386.135667,278.6 390.914,280.857 394.208,285.371 C397.502,289.885 399.393,295.436 399.881,302.024 L399.881,302.024 L402.687,302.024 L402.687,302.024 L402.687938,300.643491 C402.70326,289.50417 402.906281,281.66834 403.297,277.136 L403.297,277.136 L400.491,277.136 C400.247,279.006667 399.921667,280.369 399.515,281.223 C399.108333,282.077 398.539,282.504 397.807,282.504 C396.831,282.504 395.448333,281.934667 393.659,280.796 C391.463,279.332 389.328,278.213667 387.254,277.441 C385.18,276.668333 382.353667,276.282 378.775,276.282 C372.268333,276.282 366.819,278.091667 362.427,281.711 C358.035,285.330333 355.839,290.556 355.839,297.388 C355.839,301.698667 356.774333,305.460333 358.645,308.673 C360.515667,311.885667 362.935333,314.630667 365.904,316.908 C368.872667,319.185333 372.756333,321.788 377.555,324.716 C384.143,328.701333 388.962,332.28 392.012,335.452 C395.062,338.624 396.587,342.487333 396.587,347.042 C396.587,352.41 395.041667,356.456333 391.951,359.181 C388.860333,361.905667 385.119,363.268 380.727,363.268 C373.488333,363.268 368.120333,360.706 364.623,355.582 C361.125667,350.458 359.092333,343.788667 358.523,335.574 L358.523,335.574 L355.717,335.574 C355.717,350.620667 355.554333,360.380667 355.229,364.854 L355.229,364.854 L358.035,364.854 C358.279,362.983333 358.604333,361.621 359.011,360.767 C359.417667,359.913 359.987,359.486 360.719,359.486 C361.695,359.486 363.077667,360.055333 364.867,361.194 C367.144333,362.576667 369.523333,363.674667 372.004,364.488 C374.484667,365.301333 377.677,365.708 381.581,365.708 Z M447.095,365.708 C452.788333,365.708 457.648,364.101667 461.674,360.889 C465.7,357.676333 468.445,353.833333 469.909,349.36 L469.909,349.36 L467.469,348.384 C465.435667,352.776 462.914333,355.907333 459.905,357.778 C456.895667,359.648667 453.439,360.584 449.535,360.584 C446.363,360.584 443.333333,359.506333 440.446,357.351 C437.558667,355.195667 435.240667,352.125333 433.492,348.14 C431.743333,344.154667 430.869,339.478 430.869,334.11 C430.869,331.182 430.991,328.579333 431.235,326.302 L431.235,326.302 L469.421,326.302 C469.421,317.274 467.448667,310.543667 463.504,306.111 C459.559333,301.678333 453.927,299.462 446.607,299.462 C441.076333,299.462 436.237,300.865 432.089,303.671 C427.941,306.477 424.728333,310.482667 422.451,315.688 C420.173667,320.893333 419.035,327.034 419.035,334.11 C419.035,340.372667 420.153333,345.883 422.39,350.641 C424.626667,355.399 427.859667,359.099667 432.089,361.743 C436.318333,364.386333 441.320333,365.708 447.095,365.708 Z M457.709,323.984 L431.113,323.984 C431.763667,316.664 433.471667,311.133333 436.237,307.392 C439.002333,303.650667 442.296333,301.78 446.119,301.78 C450.023,301.78 452.971333,303.894667 454.964,308.124 C456.956667,312.353333 457.871667,317.64 457.709,323.984 L457.709,323.984 Z M508.827,365.708 C514.520333,365.708 519.38,364.101667 523.406,360.889 C527.432,357.676333 530.177,353.833333 531.641,349.36 L531.641,349.36 L529.201,348.384 C527.167667,352.776 524.646333,355.907333 521.637,357.778 C518.627667,359.648667 515.171,360.584 511.267,360.584 C508.095,360.584 505.065333,359.506333 502.178,357.351 C499.290667,355.195667 496.972667,352.125333 495.224,348.14 C493.475333,344.154667 492.601,339.478 492.601,334.11 C492.601,331.182 492.723,328.579333 492.967,326.302 L492.967,326.302 L531.153,326.302 C531.153,317.274 529.180667,310.543667 525.236,306.111 C521.291333,301.678333 515.659,299.462 508.339,299.462 C502.808333,299.462 497.969,300.865 493.821,303.671 C489.673,306.477 486.460333,310.482667 484.183,315.688 C481.905667,320.893333 480.767,327.034 480.767,334.11 C480.767,340.372667 481.885333,345.883 484.122,350.641 C486.358667,355.399 489.591667,359.099667 493.821,361.743 C498.050333,364.386333 503.052333,365.708 508.827,365.708 Z M519.441,323.984 L492.845,323.984 C493.495667,316.664 495.203667,311.133333 497.969,307.392 C500.734333,303.650667 504.028333,301.78 507.851,301.78 C511.755,301.78 514.703333,303.894667 516.696,308.124 C518.688667,312.353333 519.603667,317.64 519.441,323.984 L519.441,323.984 Z M603.499,364 L603.499,361.56 C600.571,361.397333 598.436,361.072 597.094,360.584 C595.752,360.096 594.837,359.160667 594.349,357.778 C593.861,356.395333 593.617,354.158667 593.617,351.068 L593.617,351.068 L593.617,290.556 C593.617,287.465333 593.861,285.228667 594.349,283.846 C594.837,282.463333 595.752,281.528 597.094,281.04 C598.436,280.552 600.571,280.226667 603.499,280.064 L603.499,280.064 L603.499,277.624 C599.676333,277.868 594.511667,277.99 588.005,277.99 L587.354492,277.989643 C580.686747,277.982256 575.69825,277.860375 572.389,277.624 L572.389,277.624 L572.389,280.064 C575.317,280.226667 577.452,280.552 578.794,281.04 C580.136,281.528 581.051,282.463333 581.539,283.846 C582.027,285.228667 582.271,287.465333 582.271,290.556 L582.271,290.556 L582.271,351.068 C582.271,354.158667 582.027,356.395333 581.539,357.778 C581.051,359.160667 580.136,360.096 578.794,360.584 C577.452,361.072 575.317,361.397333 572.389,361.56 L572.389,361.56 L572.389,364 C575.805,363.756 581.010333,363.634 588.005,363.634 C594.593,363.634 599.757667,363.756 603.499,364 L603.499,364 Z M679.627,364 L679.627,361.438 C676.211,361.438 673.811667,360.807667 672.429,359.547 C671.046333,358.286333 670.355,355.988667 670.355,352.654 L670.355,352.654 L670.355,320.08 C670.355,315.932 670.029667,312.638 669.379,310.198 C668.728333,307.758 667.630333,305.724667 666.085,304.098 C663.157,301.007333 658.846333,299.462 653.153,299.462 C648.598333,299.462 644.511333,300.621 640.892,302.939 C637.272667,305.257 634.446333,309.018667 632.413,314.224 L632.413,314.224 L632.413,299.828 C629.078333,300.966667 624.849,301.536 619.725,301.536 C617.285,301.536 614.763667,301.414 612.161,301.17 L612.161,301.17 L612.161,303.732 C615.577,303.732 617.976333,304.586 619.359,306.294 C620.741667,308.002 621.433,310.726667 621.433,314.468 L621.433,314.468 L621.433,352.654 C621.433,355.988667 620.741667,358.286333 619.359,359.547 C617.976333,360.807667 615.577,361.438 612.161,361.438 L612.161,361.438 L612.161,364 C619.643667,363.674667 624.523667,363.512 626.801,363.512 C629.078333,363.512 633.633,363.674667 640.465,364 L640.465,364 L640.465,361.438 C637.455667,361.438 635.361333,360.807667 634.182,359.547 C633.002667,358.286333 632.413,355.988667 632.413,352.654 L632.413,352.654 L632.413,325.57 C632.413,321.422 633.124667,317.660333 634.548,314.285 C635.971333,310.909667 637.984333,308.246 640.587,306.294 C643.189667,304.342 646.158333,303.366 649.493,303.366 C653.478333,303.366 656.121667,304.565667 657.423,306.965 C658.724333,309.364333 659.375,312.841333 659.375,317.396 L659.375,317.396 L659.375,352.654 C659.375,355.988667 658.785333,358.286333 657.606,359.547 C656.426667,360.807667 654.332333,361.438 651.323,361.438 L651.323,361.438 L651.323,364 C658.155,363.674667 662.709667,363.512 664.987,363.512 C667.264333,363.512 672.144333,363.674667 679.627,364 L679.627,364 Z M371.455,528.708 C375.196333,528.708 378.592,528.159 381.642,527.061 C384.692,525.963 387.640333,524.316 390.487,522.12 C391.707,521.225333 392.561,520.656 393.049,520.412 C393.537,520.168 394.025,520.046 394.513,520.046 C395.489,520.046 396.261667,520.798333 396.831,522.303 C397.400333,523.807667 397.725667,525.373333 397.807,527 L397.807,527 L400.247,527 L400.247,502.844 C400.247,499.753333 400.389333,497.516667 400.674,496.134 C400.958667,494.751333 401.528,493.816 402.382,493.328 C403.236,492.84 404.598333,492.514667 406.469,492.352 L406.469,492.352 L406.469,489.912 C403.541,490.156 399.311667,490.278 393.781,490.278 L393.03754,490.277565 C386.148674,490.269441 380.662494,490.147586 376.579,489.912 L376.579,489.912 L376.579,492.352 C380.239,492.514667 382.882333,492.880667 384.509,493.45 C386.135667,494.019333 387.274333,495.076667 387.925,496.622 C388.575667,498.167333 388.901,500.648 388.901,504.064 L388.901,504.064 L388.901,515.776 C388.901,517.402667 388.677333,518.683667 388.23,519.619 C387.782667,520.554333 386.827,521.51 385.363,522.486 C381.784333,525.007333 377.555,526.268 372.675,526.268 C362.671,526.268 355.330667,522.872333 350.654,516.081 C345.977333,509.289667 343.639,498.574 343.639,483.934 C343.639,475.312667 344.737,467.769 346.933,461.303 C349.129,454.837 352.260333,449.855333 356.327,446.358 C360.393667,442.860667 365.111,441.112 370.479,441.112 C374.627,441.112 378.592,441.966 382.374,443.674 C386.156,445.382 389.226333,447.7 391.585,450.628 C393.293,452.742667 394.553667,455.203 395.367,458.009 C396.180333,460.815 396.953,464.373333 397.685,468.684 L397.685,468.684 L400.491,468.684 L400.491,468.684 L400.491645,467.236132 C400.503045,454.589135 400.665497,445.718424 400.979,440.624 L400.979,440.624 L398.173,440.624 C397.685,445.585333 396.668333,448.066 395.123,448.066 C394.553667,448.066 393.740333,447.659333 392.683,446.846 C389.023,444.243333 385.647667,442.271 382.557,440.929 C379.466333,439.587 375.521667,438.916 370.723,438.916 C363.159,438.916 356.408333,440.807 350.471,444.589 C344.533667,448.371 339.877333,453.779667 336.502,460.815 C333.126667,467.850333 331.439,476.004 331.439,485.276 C331.439,494.304 333.025,502.071333 336.197,508.578 C339.369,515.084667 343.944,520.066333 349.922,523.523 C355.9,526.979667 363.077667,528.708 371.455,528.708 Z M444.045,528.708 C452.341,528.708 459.030667,525.983333 464.114,520.534 C469.197333,515.084667 471.739,506.788667 471.739,495.646 C471.739,484.503333 469.197333,476.187 464.114,470.697 C459.030667,465.207 452.341,462.462 444.045,462.462 C435.749,462.462 429.059333,465.207 423.976,470.697 C418.892667,476.187 416.351,484.503333 416.351,495.646 C416.351,506.788667 418.892667,515.084667 423.976,520.534 C429.059333,525.983333 435.749,528.708 444.045,528.708 Z M444.045,526.268 C439.165,526.268 435.301667,523.787333 432.455,518.826 C429.608333,513.864667 428.185,506.138 428.185,495.646 C428.185,485.154 429.608333,477.407 432.455,472.405 C435.301667,467.403 439.165,464.902 444.045,464.902 C448.925,464.902 452.788333,467.403 455.635,472.405 C458.481667,477.407 459.905,485.154 459.905,495.646 C459.905,506.138 458.481667,513.864667 455.635,518.826 C452.788333,523.787333 448.925,526.268 444.045,526.268 Z M510.901,528.708 C519.197,528.708 525.886667,525.983333 530.97,520.534 C536.053333,515.084667 538.595,506.788667 538.595,495.646 C538.595,484.503333 536.053333,476.187 530.97,470.697 C525.886667,465.207 519.197,462.462 510.901,462.462 C502.605,462.462 495.915333,465.207 490.832,470.697 C485.748667,476.187 483.207,484.503333 483.207,495.646 C483.207,506.788667 485.748667,515.084667 490.832,520.534 C495.915333,525.983333 502.605,528.708 510.901,528.708 Z M510.901,526.268 C506.021,526.268 502.157667,523.787333 499.311,518.826 C496.464333,513.864667 495.041,506.138 495.041,495.646 C495.041,485.154 496.464333,477.407 499.311,472.405 C502.157667,467.403 506.021,464.902 510.901,464.902 C515.781,464.902 519.644333,467.403 522.491,472.405 C525.337667,477.407 526.761,485.154 526.761,495.646 C526.761,506.138 525.337667,513.864667 522.491,518.826 C519.644333,523.787333 515.781,526.268 510.901,526.268 Z M570.315,549.936 C577.228333,549.936 583.125,548.919333 588.005,546.886 C592.885,544.852667 596.585667,542.168667 599.107,538.834 C601.628333,535.499333 602.889,531.88 602.889,527.976 C602.889,523.177333 601.079333,519.578333 597.46,517.179 C593.840667,514.779667 589.265667,513.58 583.735,513.58 L583.735,513.58 L568.485,513.58 C564.581,513.58 562.629,512.278667 562.629,509.676 C562.629,508.049333 563.320333,506.585333 564.703,505.284 C566.085667,503.982667 568.119,502.559333 570.803,501.014 L570.803,501.014 L570.925,501.014 C577.350333,501.014 582.515,499.407667 586.419,496.195 C590.323,492.982333 592.275,488.163333 592.275,481.738 C592.275,477.346 591.339667,473.726667 589.469,470.88 C590.445,469.253333 591.543,467.891 592.763,466.793 C593.983,465.695 595.650333,464.698667 597.765,463.804 C596.951667,465.918667 596.545,467.789333 596.545,469.416 C596.545,471.286667 597.053333,472.71 598.07,473.686 C599.086667,474.662 600.327,475.15 601.791,475.15 C603.336333,475.15 604.739333,474.580667 606,473.442 C607.260667,472.303333 607.891,470.595333 607.891,468.318 C607.891,466.040667 607.240333,464.292 605.939,463.072 C604.637667,461.852 602.929667,461.242 600.815,461.242 C598.456333,461.242 596.097667,461.953667 593.739,463.377 C591.380333,464.800333 589.428333,466.61 587.883,468.806 C584.223,464.576667 578.570333,462.462 570.925,462.462 C564.499667,462.462 559.335,464.068333 555.431,467.281 C551.527,470.493667 549.575,475.312667 549.575,481.738 C549.575,487.512667 551.181333,491.986 554.394,495.158 C557.606667,498.33 561.897,500.200667 567.265,500.77 C563.035667,502.966 560.006,505.202667 558.176,507.48 C556.346,509.757333 555.431,512.156667 555.431,514.678 C555.431,518.338 556.874667,520.778 559.762,521.998 C562.649333,523.218 566.492333,523.828 571.291,523.828 L571.291,523.828 L580.319,523.828 C585.605667,523.828 589.286,524.641333 591.36,526.268 C593.434,527.894667 594.471,530.172 594.471,533.1 C594.471,538.142667 592.234333,541.863667 587.761,544.263 C583.287667,546.662333 577.919667,547.862 571.657,547.862 C565.963667,547.862 561.429333,546.865667 558.054,544.873 C554.678667,542.880333 552.991,540.013333 552.991,536.272 C552.991,534.157333 553.519667,532.246 554.577,530.538 C555.634333,528.83 557.057667,527.691333 558.847,527.122 L558.847,527.122 L558.115,525.17 C554.129667,526.308667 551.018667,527.894667 548.782,529.928 C546.545333,531.961333 545.427,534.360667 545.427,537.126 C545.427,541.355333 547.806,544.547667 552.564,546.703 C557.322,548.858333 563.239,549.936 570.315,549.936 Z M570.925,498.818 C567.671667,498.818 565.211333,497.537 563.544,494.975 C561.876667,492.413 561.043,488.000667 561.043,481.738 C561.043,475.475333 561.876667,471.063 563.544,468.501 C565.211333,465.939 567.671667,464.658 570.925,464.658 C574.178333,464.658 576.638667,465.939 578.306,468.501 C579.973333,471.063 580.807,475.475333 580.807,481.738 C580.807,488.000667 579.973333,492.413 578.306,494.975 C576.638667,497.537 574.178333,498.818 570.925,498.818 Z M640.953,527 L640.953,524.438 C637.537,524.438 635.137667,523.807667 633.755,522.547 C632.372333,521.286333 631.681,518.988667 631.681,515.654 L631.681,515.654 L631.681,431.352 C628.346333,432.490667 624.117,433.06 618.993,433.06 C616.471667,433.06 613.950333,432.938 611.429,432.694 L611.429,432.694 L611.429,435.256 C614.845,435.256 617.244333,436.11 618.627,437.818 C620.009667,439.526 620.701,442.250667 620.701,445.992 L620.701,445.992 L620.701,515.654 C620.701,518.988667 620.009667,521.286333 618.627,522.547 C617.244333,523.807667 614.845,524.438 611.429,524.438 L611.429,524.438 L611.429,527 C618.911667,526.674667 623.832333,526.512 626.191,526.512 C628.549667,526.512 633.470333,526.674667 640.953,527 L640.953,527 Z M676.089,528.708 C681.782333,528.708 686.642,527.101667 690.668,523.889 C694.694,520.676333 697.439,516.833333 698.903,512.36 L698.903,512.36 L696.463,511.384 C694.429667,515.776 691.908333,518.907333 688.899,520.778 C685.889667,522.648667 682.433,523.584 678.529,523.584 C675.357,523.584 672.327333,522.506333 669.44,520.351 C666.552667,518.195667 664.234667,515.125333 662.486,511.14 C660.737333,507.154667 659.863,502.478 659.863,497.11 C659.863,494.182 659.985,491.579333 660.229,489.302 L660.229,489.302 L698.415,489.302 C698.415,480.274 696.442667,473.543667 692.498,469.111 C688.553333,464.678333 682.921,462.462 675.601,462.462 C670.070333,462.462 665.231,463.865 661.083,466.671 C656.935,469.477 653.722333,473.482667 651.445,478.688 C649.167667,483.893333 648.029,490.034 648.029,497.11 C648.029,503.372667 649.147333,508.883 651.384,513.641 C653.620667,518.399 656.853667,522.099667 661.083,524.743 C665.312333,527.386333 670.314333,528.708 676.089,528.708 Z M686.703,486.984 L660.107,486.984 C660.757667,479.664 662.465667,474.133333 665.231,470.392 C667.996333,466.650667 671.290333,464.78 675.113,464.78 C679.017,464.78 681.965333,466.894667 683.958,471.124 C685.950667,475.353333 686.865667,480.64 686.703,486.984 L686.703,486.984 Z M419.096,690.61 L448.498,611.676 L448.498,677.068 C448.498,680.158667 448.254,682.395333 447.766,683.778 C447.278,685.160667 446.363,686.096 445.021,686.584 C443.679,687.072 441.544,687.397333 438.616,687.56 L438.616,687.56 L438.616,690 C442.032,689.756 447.237333,689.634 454.232,689.634 C460.82,689.634 465.984667,689.756 469.726,690 L469.726,690 L469.726,687.56 C466.798,687.397333 464.663,687.072 463.321,686.584 C461.979,686.096 461.064,685.160667 460.576,683.778 C460.088,682.395333 459.844,680.158667 459.844,677.068 L459.844,677.068 L459.844,616.556 C459.844,613.465333 460.088,611.228667 460.576,609.846 C461.064,608.463333 461.979,607.528 463.321,607.04 C464.663,606.552 466.798,606.226667 469.726,606.064 L469.726,606.064 L469.726,603.624 C465.984667,603.868 460.82,603.99 454.232,603.99 L448.498,603.99 L422.268,674.262 L395.428,603.624 C392.744,603.868 389.287333,603.99 385.058,603.99 C380.178,603.99 376.396,603.868 373.712,603.624 L373.712,603.624 L373.712,606.064 C376.64,606.226667 378.775,606.552 380.117,607.04 C381.459,607.528 382.374,608.463333 382.862,609.846 C383.35,611.228667 383.594,613.465333 383.594,616.556 L383.594,616.556 L383.594,675.848 C383.594,678.938667 383.35,681.277 382.862,682.863 C382.374,684.449 381.438667,685.587667 380.056,686.279 C378.673333,686.970333 376.558667,687.397333 373.712,687.56 L373.712,687.56 L373.712,690 C376.396,689.756 380.178,689.634 385.058,689.634 C390.426,689.634 394.574,689.756 397.502,690 L397.502,690 L397.502,687.56 C394.248667,687.397333 391.849333,686.970333 390.304,686.279 C388.758667,685.587667 387.721667,684.469333 387.193,682.924 C386.664333,681.378667 386.4,679.02 386.4,675.848 L386.4,675.848 L386.4,611.432 L417.144,690.61 L419.096,690.61 Z M523.772,690.854 C526.049333,690.854 527.940333,690.508333 529.445,689.817 C530.949667,689.125667 532.759333,687.966667 534.874,686.34 L534.874,686.34 L533.532,684.266 C532.556,685.079333 531.641,685.709667 530.787,686.157 C529.933,686.604333 529.018,686.828 528.042,686.828 C526.659333,686.828 525.683333,686.380667 525.114,685.486 C524.544667,684.591333 524.26,683.127333 524.26,681.094 L524.26,681.094 L524.26,647.178 C524.26,642.867333 523.914333,639.390333 523.223,636.747 C522.531667,634.103667 521.169333,631.846667 519.136,629.976 C515.882667,626.966667 511.084,625.462 504.74,625.462 C501.161333,625.462 497.867333,625.909333 494.858,626.804 C491.848667,627.698667 489.368,628.837333 487.416,630.22 C485.545333,631.521333 484.142333,632.822667 483.207,634.124 C482.271667,635.425333 481.804,637.052 481.804,639.004 C481.804,641.037333 482.373333,642.765667 483.512,644.189 C484.650667,645.612333 486.358667,646.324 488.636,646.324 C490.669333,646.324 492.336667,645.734333 493.638,644.555 C494.939333,643.375667 495.59,641.769333 495.59,639.736 C495.59,637.784 495.041,636.157333 493.943,634.856 C492.845,633.554667 491.482667,632.700667 489.856,632.294 C492.214667,629.366 496.240667,627.902 501.934,627.902 C505.512667,627.902 508.298333,628.776333 510.291,630.525 C512.283667,632.273667 513.28,635.506667 513.28,640.224 L513.28,640.224 L513.28,647.788 C513.28,649.984 512.182,651.732667 509.986,653.034 C507.79,654.335333 504.414667,655.758667 499.86,657.304 C495.386667,658.849333 491.787667,660.313333 489.063,661.696 C486.338333,663.078667 483.979667,664.949333 481.987,667.308 C479.994333,669.666667 478.998,672.676 478.998,676.336 C478.998,680.890667 480.238333,684.449 482.719,687.011 C485.199667,689.573 489.002,690.854 494.126,690.854 C498.111333,690.854 501.69,690.061 504.862,688.475 C508.034,686.889 510.84,684.062667 513.28,679.996 C513.28,683.330667 514.052667,685.974 515.598,687.926 C517.143333,689.878 519.868,690.854 523.772,690.854 Z M499.494,685.974 C496.566,685.974 494.207333,685.038667 492.418,683.168 C490.628667,681.297333 489.734,678.532 489.734,674.872 C489.734,671.7 490.425333,669.097333 491.808,667.064 C493.190667,665.030667 494.837667,663.424333 496.749,662.245 C498.660333,661.065667 501.161333,659.825333 504.252,658.524 C506.936,657.304 508.928667,656.328 510.23,655.596 C511.531333,654.864 512.548,653.928667 513.28,652.79 L513.28,652.79 L513.28,676.702 C509.457333,682.883333 504.862,685.974 499.494,685.974 Z M569.644,712.082 L569.644,709.52 C565.74,709.52 562.812,708.889667 560.86,707.629 C558.908,706.368333 557.932,704.070667 557.932,700.736 L557.932,700.736 L557.932,685.12 C559.314667,687.072 561.266667,688.658 563.788,689.878 C566.309333,691.098 569.115333,691.708 572.206,691.708 C578.468667,691.708 583.694333,690 587.883,686.584 C592.071667,683.168 595.162333,678.735333 597.155,673.286 C599.147667,667.836667 600.144,661.980667 600.144,655.718 C600.144,649.374 599.168,643.924667 597.216,639.37 C595.264,634.815333 592.559667,631.358667 589.103,629 C585.646333,626.641333 581.762667,625.462 577.452,625.462 C573.06,625.462 569.156,626.621 565.74,628.939 C562.324,631.257 559.721333,634.530667 557.932,638.76 L557.932,638.76 L557.932,625.828 C554.597333,626.966667 550.368,627.536 545.244,627.536 C542.722667,627.536 540.201333,627.414 537.68,627.17 L537.68,627.17 L537.68,629.732 C541.096,629.732 543.495333,630.586 544.878,632.294 C546.260667,634.002 546.952,636.726667 546.952,640.468 L546.952,640.468 L546.952,701.956 C546.952,704.802667 546.362333,706.775 545.183,707.873 C544.003667,708.971 541.909333,709.52 538.9,709.52 L538.9,709.52 L538.9,712.082 C545.732,711.756667 550.124,711.594 552.076,711.594 C554.353333,711.594 559.274,711.716 566.838,711.96 L566.838,711.96 L569.644,712.082 Z M570.864,688.902 C567.773333,688.902 565.13,688.190333 562.934,686.767 C560.738,685.343667 559.070667,683.452667 557.932,681.094 L557.932,681.094 L557.932,644.494 C559.233333,639.532667 561.348,635.730333 564.276,633.087 C567.204,630.443667 570.498,629.122 574.158,629.122 C583.592667,629.122 588.31,638.556667 588.31,657.426 C588.31,678.41 582.494667,688.902 570.864,688.902 Z M633.816,691.708 C639.672,691.708 644.613,690.203333 648.639,687.194 C652.665,684.184667 654.678,679.996 654.678,674.628 C654.678,671.456 653.966333,668.65 652.543,666.21 C651.119667,663.77 649.269333,661.614667 646.992,659.744 C644.714667,657.873333 641.705333,655.718 637.964,653.278 C636.5,652.302 635.402,651.610667 634.67,651.204 C630.359333,648.52 627.228,646.222333 625.276,644.311 C623.324,642.399667 622.348,640.020667 622.348,637.174 C622.348,634.246 623.283333,631.948333 625.154,630.281 C627.024667,628.613667 629.424,627.78 632.352,627.78 C637.394667,627.78 641.197,629.528667 643.759,633.026 C646.321,636.523333 648.049333,640.956 648.944,646.324 L648.944,646.324 L651.75,646.324 L651.75,646.324 L651.750964,645.029173 C651.764781,635.873932 651.927126,629.392207 652.238,625.584 L652.238,625.584 L649.432,625.584 C649.106667,629.162667 648.212,630.952 646.748,630.952 C646.178667,630.952 645.446667,630.626667 644.552,629.976 C643.169333,628.756 641.339333,627.698667 639.062,626.804 C636.784667,625.909333 634.182,625.462 631.254,625.462 C626.048667,625.462 621.738,626.804 618.322,629.488 C614.906,632.172 613.198,636.076 613.198,641.2 C613.198,644.372 613.93,647.137333 615.394,649.496 C616.858,651.854667 618.667667,653.847333 620.823,655.474 C622.978333,657.100667 626.048667,659.174667 630.034,661.696 C634.914,664.786667 638.431667,667.43 640.587,669.626 C642.742333,671.822 643.82,674.506 643.82,677.678 C643.82,681.663333 642.722,684.591333 640.526,686.462 C638.33,688.332667 635.808667,689.268 632.962,689.268 C627.268667,689.268 623.242667,687.377 620.884,683.595 C618.525333,679.813 616.898667,674.099333 616.004,666.454 L616.004,666.454 L613.198,666.454 C613.198,678.084667 613.035333,686.218 612.71,690.854 L612.71,690.854 L615.516,690.854 C615.76,689.39 616.105667,688.251333 616.553,687.438 C617.000333,686.624667 617.508667,686.218 618.078,686.218 C618.484667,686.218 618.850667,686.380667 619.176,686.706 C620.721333,688.007333 622.388667,689.105333 624.178,690 C626.943333,691.138667 630.156,691.708 633.816,691.708 Z" id="SeeInGoogleMaps" fill="#FFFFFF" fill-rule="nonzero"></path>
    </g>
</svg>